RecursiveMono-GothicBItalic.ufo
<glyph name="ampersand" format="1">
  <advance width="600"/>
  <unicode hex="0026"/>
  <outline>
    <contour>
      <point x="326" y="709.0" type="curve" smooth="yes"/>
      <point x="158.1900826446281" y="709.0"/>
      <point x="64.0" y="630.0"/>
      <point x="64" y="534" type="curve" smooth="yes"/>
      <point x="64.0" y="483.1290322580645"/>
      <point x="148.0" y="453.0"/>
      <point x="259" y="453" type="curve"/>
      <point x="259.0" y="464.0"/>
      <point x="259.0" y="487.0"/>
      <point x="259.0" y="507" type="curve" smooth="yes"/>
      <point x="259.0" y="519.0"/>
      <point x="267.0" y="529.0"/>
      <point x="334" y="529.0" type="curve" smooth="yes"/>
      <point x="389" y="529.0"/>
      <point x="429.604692936869" y="523.7254101349902"/>
      <point x="480" y="514" type="curve"/>
      <point x="500" y="514" type="line"/>
      <point x="500.0" y="560.8947368421053"/>
      <point x="500.0" y="629.1052631578947"/>
      <point x="500" y="676" type="curve"/>
      <point x="500" y="681"/>
      <point x="499" y="684"/>
      <point x="497" y="686" type="curve" smooth="yes"/>
      <point x="487.3854811885922" y="695.6145188114077"/>
      <point x="419.99337748344374" y="709.0"/>
    </contour>
    <contour>
      <point x="283" y="456" type="curve" smooth="yes"/>
      <point x="265.0" y="483.0"/>
      <point x="259.0" y="495.0"/>
      <point x="259.0" y="507" type="curve" smooth="yes"/>
      <point x="259.0" y="529"/>
      <point x="260.0" y="549.0"/>
      <point x="277" y="574" type="curve"/>
      <point x="117.0" y="574.0"/>
      <point x="64" y="572.0"/>
      <point x="64" y="534" type="curve" smooth="yes"/>
      <point x="64" y="511" type="line" smooth="yes"/>
      <point x="64" y="447"/>
      <point x="90" y="399"/>
      <point x="145" y="328" type="curve" smooth="yes"/>
      <point x="207.0" y="248.0"/>
      <point x="270.0" y="168.0"/>
      <point x="332" y="88" type="curve" smooth="yes"/>
      <point x="390.0" y="14"/>
      <point x="431.0" y="-10"/>
      <point x="537" y="-10.0" type="curve" smooth="yes"/>
      <point x="569" y="-10" type="line" smooth="yes"/>
      <point x="576.0" y="-10.0"/>
      <point x="580" y="-6"/>
      <point x="580" y="1" type="curve" smooth="yes"/>
      <point x="580.0" y="64"/>
      <point x="580.0" y="127"/>
      <point x="580" y="190" type="curve"/>
      <point x="553" y="190" type="line"/>
      <point x="550.0" y="190.0"/>
      <point x="526.0" y="190.0"/>
      <point x="523" y="190" type="curve" smooth="yes"/>
      <point x="491.0" y="190"/>
      <point x="476" y="196"/>
      <point x="463" y="214" type="curve" smooth="yes"/>
      <point x="400" y="297"/>
      <point x="343" y="373"/>
    </contour>
    <contour>
      <point x="193" y="-9.0" type="curve" smooth="yes"/>
      <point x="277" y="-9.0"/>
      <point x="327" y="38"/>
      <point x="357" y="93" type="curve" smooth="yes"/>
      <point x="366.197725385255" y="110.37348128325945"/>
      <point x="372.0" y="120.0"/>
      <point x="311" y="192" type="curve"/>
      <point x="287.0" y="151.0"/>
      <point x="268.7684210526316" y="139.0"/>
      <point x="231" y="139.0" type="curve" smooth="yes"/>
      <point x="202" y="139.0"/>
      <point x="186" y="156"/>
      <point x="186.0" y="194" type="curve" smooth="yes"/>
      <point x="186.0" y="211" type="line" smooth="yes"/>
      <point x="186.0" y="251.0"/>
      <point x="214" y="283.0"/>
      <point x="258" y="283" type="curve"/>
      <point x="203" y="354"/>
      <point x="173" y="377.0"/>
      <point x="155" y="377.0" type="curve" smooth="yes"/>
      <point x="83.0" y="377.0"/>
      <point x="15" y="322"/>
      <point x="15" y="234" type="curve" smooth="yes"/>
      <point x="15" y="160" type="line" smooth="yes"/>
      <point x="15" y="54"/>
      <point x="81" y="-9"/>
    </contour>
    <contour>
      <point x="559" y="430" type="curve" smooth="yes"/>
      <point x="528" y="430"/>
      <point x="468.0" y="430.0"/>
      <point x="419" y="430" type="curve"/>
      <point x="419.0" y="399.0"/>
      <point x="419.0" y="368.0"/>
      <point x="419" y="337" type="curve" smooth="yes"/>
      <point x="419.0" y="322.0"/>
      <point x="416" y="310"/>
      <point x="396" y="286" type="curve" smooth="yes"/>
      <point x="383" y="273"/>
      <point x="394.0" y="259.0"/>
      <point x="449" y="208" type="curve"/>
      <point x="537.0" y="240.0"/>
      <point x="570" y="293"/>
      <point x="570.0" y="334" type="curve" smooth="yes"/>
      <point x="570" y="419" type="line" smooth="yes"/>
      <point x="570.0" y="426.0"/>
      <point x="566.0" y="430.0"/>
    </contour>
  </outline>
</glyph>
<glyph name="plus" format="1">
  <advance width="600"/>
  <unicode hex="002B"/>
  <outline>
    <contour>
      <point x="60.0" y="374.0" type="line"/>
      <point x="60.0" y="328.0"/>
      <point x="60.0" y="283.0"/>
      <point x="60.0" y="237.0" type="curve" smooth="yes"/>
      <point x="60.0" y="234.0"/>
      <point x="61.0" y="231.0"/>
      <point x="63.0" y="229.0" type="curve" smooth="yes"/>
      <point x="65.0" y="227.0"/>
      <point x="68.0" y="226.0"/>
      <point x="71.0" y="226.0" type="curve"/>
      <point x="540.0" y="226.0" type="line"/>
      <point x="540.0" y="272.0"/>
      <point x="540.0" y="317.0"/>
      <point x="540.0" y="363.0" type="curve" smooth="yes"/>
      <point x="540.0" y="369.0"/>
      <point x="535.0" y="374.0"/>
      <point x="529.0" y="374.0" type="curve"/>
    </contour>
    <contour>
      <point x="375" y="62" type="curve"/>
      <point x="375" y="527" type="line" smooth="yes"/>
      <point x="375" y="530"/>
      <point x="374" y="533"/>
      <point x="372" y="535" type="curve" smooth="yes"/>
      <point x="370" y="537"/>
      <point x="367" y="538"/>
      <point x="364" y="538" type="curve" smooth="yes"/>
      <point x="319" y="538"/>
      <point x="280" y="538"/>
      <point x="225" y="538" type="curve"/>
      <point x="225" y="510"/>
      <point x="225" y="476"/>
      <point x="225" y="440" type="curve" smooth="yes"/>
      <point x="225" y="73" type="line" smooth="yes"/>
      <point x="225.0" y="67.0"/>
      <point x="230" y="62"/>
      <point x="236" y="62" type="curve" smooth="yes"/>
      <point x="286" y="62"/>
      <point x="325" y="62"/>
    </contour>
  </outline>
</glyph>
<glyph name="comma" format="1">
  <advance width="350"/>
  <unicode hex="002C"/>
  <outline>
    <contour>
      <point x="202" y="-190.0" type="curve" smooth="yes"/>
      <point x="206" y="-190.0"/>
      <point x="210.0" y="-189.0"/>
      <point x="212.0" y="-183.0" type="curve"/>
      <point x="252.0" y="-64.0"/>
      <point x="306.0" y="85.0"/>
      <point x="334.0" y="167.0" type="curve"/>
      <point x="336.0" y="175.0"/>
      <point x="334.0" y="180.0"/>
      <point x="326.0" y="180.0" type="curve" smooth="yes"/>
      <point x="232.0" y="180.0"/>
      <point x="176.0" y="180.0"/>
      <point x="67.0" y="180.0" type="curve"/>
      <point x="43.0" y="57.0"/>
      <point x="19.0" y="-67.0"/>
      <point x="-5.0" y="-190.0" type="curve"/>
      <point x="49.0" y="-190.0"/>
      <point x="111" y="-190.0"/>
    </contour>
  </outline>
</glyph>
<glyph name="hyphen" format="1">
  <advance width="600"/>
  <unicode hex="002D"/>
  <outline>
    <contour>
      <point x="100" y="405" type="line"/>
      <point x="100.0" y="338"/>
      <point x="100.0" y="272"/>
      <point x="100" y="206" type="curve" smooth="yes"/>
      <point x="100" y="203"/>
      <point x="101" y="200"/>
      <point x="103" y="198" type="curve" smooth="yes"/>
      <point x="105" y="196"/>
      <point x="108" y="195"/>
      <point x="111" y="195" type="curve"/>
      <point x="500" y="195" type="line"/>
      <point x="500.0" y="261"/>
      <point x="500.0" y="327"/>
      <point x="500" y="394" type="curve" smooth="yes"/>
      <point x="500.0" y="400.0"/>
      <point x="495.0" y="405.0"/>
      <point x="489" y="405" type="curve"/>
    </contour>
  </outline>
</glyph>
<glyph name="three" format="1">
  <advance width="600"/>
  <unicode hex="0033"/>
  <outline>
    <contour>
      <point x="256" y="505" type="curve" smooth="yes"/>
      <point x="340.0" y="505.0"/>
      <point x="353.0" y="485.0"/>
      <point x="353.0" y="470" type="curve" smooth="yes"/>
      <point x="353.0" y="449.0"/>
      <point x="353.0" y="447.0"/>
      <point x="353" y="432" type="curve"/>
      <point x="458.0" y="431.0"/>
      <point x="562.0" y="445"/>
      <point x="562" y="525" type="curve" smooth="yes"/>
      <point x="562" y="542" type="line" smooth="yes"/>
      <point x="562.0" y="675.0"/>
      <point x="457.0" y="720.0"/>
      <point x="272" y="720.0" type="curve" smooth="yes"/>
      <point x="146" y="720.0"/>
      <point x="58" y="709"/>
      <point x="48" y="699" type="curve" smooth="yes"/>
      <point x="46" y="697"/>
      <point x="45.0" y="694.0"/>
      <point x="45" y="691" type="curve" smooth="yes"/>
      <point x="45.0" y="616"/>
      <point x="45.0" y="557"/>
      <point x="45" y="487" type="curve"/>
      <point x="65" y="487" type="line"/>
      <point x="119.0" y="500.0"/>
      <point x="180.0" y="505.0"/>
    </contour>
    <contour>
      <point x="144" y="340" type="curve" smooth="yes"/>
      <point x="375.1057692307693" y="340.0"/>
      <point x="562.0" y="335.0"/>
      <point x="562" y="525" type="curve" smooth="yes"/>
      <point x="562.0" y="548.0"/>
      <point x="444.0" y="580.0"/>
      <point x="353" y="580" type="curve"/>
      <point x="353.0" y="545.0"/>
      <point x="353.0" y="508.0"/>
      <point x="353.0" y="470" type="curve" smooth="yes"/>
      <point x="353.0" y="452.0"/>
      <point x="340.88990825688074" y="443.0"/>
      <point x="133" y="443" type="curve"/>
      <point x="133.0" y="411"/>
      <point x="133" y="383"/>
      <point x="133" y="352" type="curve" smooth="yes"/>
      <point x="133.0" y="346.0"/>
      <point x="138.0" y="340.0"/>
    </contour>
    <contour>
      <point x="144" y="255.0" type="curve" smooth="yes"/>
      <point x="353.0" y="255.0"/>
      <point x="364.0" y="248.0"/>
      <point x="364.0" y="229.0" type="curve" smooth="yes"/>
      <point x="364.0" y="198.0"/>
      <point x="364.0" y="195.0"/>
      <point x="364" y="145" type="curve"/>
      <point x="502.0" y="145.0"/>
      <point x="572.0" y="151.0"/>
      <point x="572" y="210" type="curve" smooth="yes"/>
      <point x="572.0" y="378.0"/>
      <point x="364.0" y="362.0"/>
      <point x="133" y="362" type="curve"/>
      <point x="133.0" y="321.0"/>
      <point x="133.0" y="299.0"/>
      <point x="133" y="266" type="curve" smooth="yes"/>
      <point x="133.0" y="258.0"/>
      <point x="136.0" y="255.0"/>
    </contour>
    <contour>
      <point x="256" y="195" type="curve" smooth="yes"/>
      <point x="164.0" y="195.0"/>
      <point x="120" y="200"/>
      <point x="55" y="213" type="curve"/>
      <point x="35" y="213" type="line"/>
      <point x="35.0" y="143.0"/>
      <point x="35.0" y="85.0"/>
      <point x="35" y="9" type="curve" smooth="yes"/>
      <point x="35.0" y="6.0"/>
      <point x="36" y="3"/>
      <point x="38" y="1" type="curve" smooth="yes"/>
      <point x="48.0" y="-9.0"/>
      <point x="136.0" y="-20.0"/>
      <point x="263" y="-20" type="curve" smooth="yes"/>
      <point x="434.0" y="-20.0"/>
      <point x="572" y="26.0"/>
      <point x="572" y="182" type="curve" smooth="yes"/>
      <point x="572" y="210" type="line" smooth="yes"/>
      <point x="572" y="287.0"/>
      <point x="480.0" y="296.0"/>
      <point x="364" y="294" type="curve"/>
      <point x="364.0" y="270.0"/>
      <point x="364.0" y="263.0"/>
      <point x="364.0" y="229.0" type="curve" smooth="yes"/>
      <point x="364.0" y="216.0"/>
      <point x="345" y="195.0"/>
    </contour>
  </outline>
</glyph>
<glyph name="six" format="1">
  <advance width="600"/>
  <unicode hex="0036"/>
  <outline>
    <contour>
      <point x="164" y="182" type="curve"/>
      <point x="164.0" y="27.0"/>
      <point x="233.1315789473684" y="-22.0"/>
      <point x="306" y="-22" type="curve"/>
      <point x="469.08527131782944" y="-22.0"/>
      <point x="574" y="72.0"/>
      <point x="574" y="196" type="curve" smooth="yes"/>
      <point x="574" y="260" type="line" smooth="yes"/>
      <point x="574.0" y="335"/>
      <point x="540" y="339"/>
      <point x="359" y="339" type="curve"/>
      <point x="359.0" y="302.0"/>
      <point x="359" y="290.0"/>
      <point x="359" y="258" type="curve" smooth="yes"/>
      <point x="359" y="216" type="line" smooth="yes"/>
      <point x="359.0" y="195.0"/>
      <point x="347.0" y="182.0"/>
      <point x="304" y="182" type="curve" smooth="yes"/>
      <point x="217.0" y="182.0"/>
      <point x="195.0" y="182.0"/>
    </contour>
    <contour>
      <point x="233" y="520" type="curve"/>
      <point x="267" y="520.0"/>
      <point x="305.0" y="520.0"/>
      <point x="350" y="520" type="curve" smooth="yes"/>
      <point x="422" y="520"/>
      <point x="465" y="514"/>
      <point x="511" y="502" type="curve"/>
      <point x="531" y="502" type="line"/>
      <point x="531" y="557"/>
      <point x="531" y="616"/>
      <point x="531" y="691" type="curve" smooth="yes"/>
      <point x="531" y="694"/>
      <point x="530" y="697"/>
      <point x="528" y="699" type="curve" smooth="yes"/>
      <point x="515.3794088495168" y="711.6205911504832"/>
      <point x="433.44444444444446" y="720.0"/>
      <point x="344" y="720" type="curve" smooth="yes"/>
      <point x="268.28476821192055" y="720.0"/>
      <point x="233.0" y="656.0"/>
    </contour>
    <contour>
      <point x="31" y="417" type="curve" smooth="yes"/>
      <point x="31" y="250" type="line" smooth="yes"/>
      <point x="31" y="73.0"/>
      <point x="126.52631578947367" y="-22.0"/>
      <point x="306" y="-22" type="curve" smooth="yes"/>
      <point x="309.3333333333333" y="-22.0"/>
      <point x="361.11459187439027" y="21.906068230875775"/>
      <point x="304" y="182" type="curve"/>
      <point x="262.0" y="182.0"/>
      <point x="246.0" y="198.0"/>
      <point x="246" y="244" type="curve" smooth="yes"/>
      <point x="246" y="407" type="line" smooth="yes"/>
      <point x="246" y="482"/>
      <point x="254.0" y="520.0"/>
      <point x="350" y="520" type="curve"/>
      <point x="404.28700704861507" y="686.6706356755726"/>
      <point x="349.29411764705884" y="720.0"/>
      <point x="344" y="720" type="curve" smooth="yes"/>
      <point x="146.26912181303115" y="720.0"/>
      <point x="31" y="610.0"/>
    </contour>
    <contour>
      <point x="391" y="453.0" type="curve" smooth="yes"/>
      <point x="324.88157894736844" y="453.0"/>
      <point x="280.7124457176254" y="435.7124457176254"/>
      <point x="241" y="396" type="curve" smooth="yes"/>
      <point x="213.03471116298027" y="368.0347111629803"/>
      <point x="198.0" y="313.17293233082705"/>
      <point x="198" y="260" type="curve"/>
      <point x="250" y="277"/>
      <point x="287" y="280"/>
      <point x="322" y="280" type="curve" smooth="yes"/>
      <point x="352.0" y="280.0"/>
      <point x="359.0" y="274.0"/>
      <point x="359" y="249" type="curve" smooth="yes"/>
      <point x="359.0" y="244.18367346938774"/>
      <point x="359.0" y="230.9387755102041"/>
      <point x="359" y="190" type="curve"/>
      <point x="547.0" y="190.0"/>
      <point x="574.0" y="232.0"/>
      <point x="574" y="260" type="curve" smooth="yes"/>
      <point x="574.0" y="381.0"/>
      <point x="501.0" y="453.0"/>
    </contour>
  </outline>
</glyph>
<glyph name="seven" format="1">
  <advance width="600"/>
  <unicode hex="0037"/>
  <outline>
    <contour>
      <point x="418" y="475" type="line" smooth="yes"/>
      <point x="480" y="475"/>
      <point x="536" y="478"/>
      <point x="570" y="500" type="curve"/>
      <point x="570" y="689" type="line"/>
      <point x="570" y="695"/>
      <point x="565" y="700"/>
      <point x="559" y="700" type="curve"/>
      <point x="30" y="700" type="line"/>
      <point x="30" y="624" type="line" smooth="yes"/>
      <point x="30" y="531.1557788944724"/>
      <point x="52.0" y="475"/>
      <point x="86" y="475" type="curve" smooth="yes"/>
    </contour>
    <contour>
      <point x="370" y="0" type="line"/>
      <point x="558.0" y="463.0"/>
      <point x="570.0" y="495.0980392156863"/>
      <point x="570" y="500" type="curve" smooth="yes"/>
      <point x="570.0" y="560.0666666666667"/>
      <point x="507.00152908184197" y="583.9999835582597"/>
      <point x="414" y="585" type="curve"/>
      <point x="123" y="37"/>
      <point x="120.0" y="28.0"/>
      <point x="120" y="11" type="curve" smooth="yes"/>
      <point x="120.0" y="6.0"/>
      <point x="125.0" y="0"/>
      <point x="130" y="0" type="curve" smooth="yes"/>
    </contour>
    <contour>
      <point x="235" y="430" type="curve"/>
      <point x="235.0" y="497.0"/>
      <point x="235.0" y="561.0"/>
      <point x="235" y="629" type="curve"/>
      <point x="235.0" y="674.0"/>
      <point x="183.0" y="700"/>
      <point x="44" y="700" type="curve" smooth="yes"/>
      <point x="30" y="700" type="line"/>
      <point x="30.0" y="611.6"/>
      <point x="30.0" y="528.4"/>
      <point x="30" y="440" type="curve"/>
      <point x="30.0" y="434.0"/>
      <point x="35.0" y="430.0"/>
      <point x="41" y="430" type="curve" smooth="yes"/>
      <point x="105" y="430.0"/>
      <point x="171" y="430.0"/>
    </contour>
  </outline>
</glyph>
<glyph name="eight" format="1">
  <advance width="600"/>
  <unicode hex="0038"/>
  <outline>
    <contour>
      <point x="418" y="398" type="curve" smooth="yes"/>
      <point x="282" y="448" type="line" smooth="yes"/>
      <point x="262" y="455"/>
      <point x="250" y="468"/>
      <point x="250" y="481" type="curve" smooth="yes"/>
      <point x="250" y="482"/>
      <point x="250" y="506"/>
      <point x="250" y="525" type="curve"/>
      <point x="84" y="525"/>
      <point x="50" y="519"/>
      <point x="50" y="489" type="curve" smooth="yes"/>
      <point x="50" y="401"/>
      <point x="104" y="331"/>
      <point x="200" y="294" type="curve" smooth="yes"/>
      <point x="331" y="243" type="line" smooth="yes"/>
      <point x="360" y="231"/>
      <point x="370" y="223"/>
      <point x="370" y="211" type="curve" smooth="yes"/>
      <point x="370.0" y="189.52380952380952"/>
      <point x="370.0" y="184.1875"/>
      <point x="370" y="167" type="curve"/>
      <point x="548.0" y="167.0"/>
      <point x="570.0" y="201.7674418604651"/>
      <point x="570" y="213" type="curve"/>
      <point x="570" y="296"/>
      <point x="514" y="363"/>
    </contour>
    <contour>
      <point x="297" y="-20" type="curve" smooth="yes"/>
      <point x="468" y="-20"/>
      <point x="570" y="48"/>
      <point x="570" y="162" type="curve" smooth="yes"/>
      <point x="570" y="213" type="line" smooth="yes"/>
      <point x="570" y="222.8433734939759"/>
      <point x="545.0" y="256.0"/>
      <point x="370" y="256" type="curve"/>
      <point x="370.0" y="239.5"/>
      <point x="370.0" y="222.5"/>
      <point x="370" y="206" type="curve" smooth="yes"/>
      <point x="370.0" y="188.0"/>
      <point x="348" y="180.0"/>
      <point x="297" y="180" type="curve" smooth="yes"/>
      <point x="268.18471337579615" y="180.0"/>
      <point x="238.81528662420382" y="180.0"/>
      <point x="210" y="180" type="curve"/>
      <point x="210.0" y="10.0"/>
      <point x="223.29936305732485" y="-20.0"/>
    </contour>
    <contour>
      <point x="304" y="720" type="curve" smooth="yes"/>
      <point x="151" y="720"/>
      <point x="50" y="641"/>
      <point x="50" y="522" type="curve" smooth="yes"/>
      <point x="50" y="489" type="line" smooth="yes"/>
      <point x="50" y="460"/>
      <point x="84" y="445"/>
      <point x="250" y="445" type="curve"/>
      <point x="250" y="451"/>
      <point x="250" y="484"/>
      <point x="250" y="489" type="curve" smooth="yes"/>
      <point x="250" y="510"/>
      <point x="269" y="520"/>
      <point x="307" y="520" type="curve" smooth="yes"/>
      <point x="334" y="520"/>
      <point x="353" y="520"/>
      <point x="390" y="520" type="curve"/>
      <point x="390" y="688"/>
      <point x="376" y="720"/>
    </contour>
    <contour>
      <point x="371" y="367" type="curve" smooth="yes"/>
      <point x="465" y="367"/>
      <point x="550" y="432"/>
      <point x="550" y="503" type="curve" smooth="yes"/>
      <point x="550" y="536" type="line" smooth="yes"/>
      <point x="550" y="647"/>
      <point x="452" y="720"/>
      <point x="304" y="720" type="curve" smooth="yes"/>
      <point x="282" y="720"/>
      <point x="283" y="672"/>
      <point x="307" y="520" type="curve"/>
      <point x="337.0" y="520.0"/>
      <point x="350" y="511.5416666666667"/>
      <point x="350" y="491" type="curve" smooth="yes"/>
      <point x="350" y="476" type="line" smooth="yes"/>
      <point x="350" y="454"/>
      <point x="335" y="433"/>
      <point x="314" y="424" type="curve"/>
      <point x="314" y="394"/>
      <point x="340" y="367"/>
    </contour>
    <contour>
      <point x="297" y="180" type="curve"/>
      <point x="248" y="180.0"/>
      <point x="230" y="189"/>
      <point x="230" y="211" type="curve" smooth="yes"/>
      <point x="230" y="227" type="line" smooth="yes"/>
      <point x="230" y="251"/>
      <point x="250" y="278"/>
      <point x="272" y="285" type="curve"/>
      <point x="272" y="330"/>
      <point x="259" y="350"/>
      <point x="229" y="350" type="curve" smooth="yes"/>
      <point x="122" y="350"/>
      <point x="30" y="280"/>
      <point x="30" y="199" type="curve" smooth="yes"/>
      <point x="30" y="169" type="line" smooth="yes"/>
      <point x="30" y="41"/>
      <point x="117" y="-20"/>
      <point x="297" y="-20" type="curve" smooth="yes"/>
      <point x="318.0" y="-20.0"/>
      <point x="331" y="15.0"/>
    </contour>
  </outline>
</glyph>
<glyph name="B" format="1">
  <advance width="600"/>
  <unicode hex="0042"/>
  <outline>
    <contour>
      <point x="260" y="5" type="curve"/>
      <point x="260" y="649" type="line" smooth="yes"/>
      <point x="260" y="655"/>
      <point x="257" y="660"/>
      <point x="35" y="660" type="curve"/>
      <point x="35" y="11" type="line"/>
      <point x="35" y="6"/>
      <point x="185" y="5"/>
    </contour>
    <contour>
      <point x="5" y="700" type="curve"/>
      <point x="5" y="644"/>
      <point x="5" y="587"/>
      <point x="5" y="531" type="curve" smooth="yes"/>
      <point x="5" y="528"/>
      <point x="6" y="525"/>
      <point x="8" y="523" type="curve" smooth="yes"/>
      <point x="10" y="521"/>
      <point x="13" y="520"/>
      <point x="16" y="520" type="curve" smooth="yes"/>
      <point x="32" y="520"/>
      <point x="84" y="520"/>
      <point x="100" y="520" type="curve" smooth="yes"/>
      <point x="163.96923076923076" y="520.0"/>
      <point x="234.60098522167488" y="520.0"/>
      <point x="298" y="520" type="curve" smooth="yes"/>
      <point x="391.99342105263156" y="520.0"/>
      <point x="419.675" y="520.0"/>
      <point x="455" y="520" type="curve"/>
      <point x="455.0" y="658.0"/>
      <point x="417.0" y="700.0"/>
      <point x="357" y="700" type="curve" smooth="yes"/>
      <point x="240" y="700.0"/>
      <point x="122.0" y="700.0"/>
    </contour>
    <contour>
      <point x="570.0" y="495" type="curve" smooth="yes"/>
      <point x="570.0" y="531" type="line" smooth="yes"/>
      <point x="570.0" y="597.0"/>
      <point x="516.0" y="700.0"/>
      <point x="357" y="700" type="curve" smooth="yes"/>
      <point x="331.9020654444187" y="700.0"/>
      <point x="298.0" y="661.0"/>
      <point x="298" y="520" type="curve"/>
      <point x="338.0" y="520.0"/>
      <point x="350.0" y="503.0"/>
      <point x="350" y="477" type="curve" smooth="yes"/>
      <point x="350" y="461" type="line" smooth="yes"/>
      <point x="350" y="434"/>
      <point x="331" y="420"/>
      <point x="302" y="420" type="curve" smooth="yes"/>
      <point x="263.6666666666667" y="420.0"/>
      <point x="225.6818181818182" y="420.0"/>
      <point x="187" y="420" type="curve"/>
      <point x="187.0" y="400.1095890410959"/>
      <point x="187.0" y="377.9130434782609"/>
      <point x="187" y="354" type="curve" smooth="yes"/>
      <point x="187.0" y="348"/>
      <point x="192.0" y="343.0"/>
      <point x="198" y="343" type="curve" smooth="yes"/>
      <point x="388" y="343" type="line" smooth="yes"/>
      <point x="483.0" y="343"/>
      <point x="570" y="414.6981132075472"/>
    </contour>
    <contour>
      <point x="575.0" y="173" type="curve" smooth="yes"/>
      <point x="575.0" y="205" type="line" smooth="yes"/>
      <point x="575.0" y="290.17791411042947"/>
      <point x="471.0" y="361"/>
      <point x="378" y="361" type="curve" smooth="yes"/>
      <point x="201" y="361" type="line" smooth="yes"/>
      <point x="191" y="361.0"/>
      <point x="187.0" y="357.0"/>
      <point x="187" y="347" type="curve"/>
      <point x="187" y="280" type="line"/>
      <point x="292" y="280.0" type="line"/>
      <point x="332.0" y="280.0"/>
      <point x="345.0" y="266.3333333333333"/>
      <point x="345" y="239" type="curve" smooth="yes"/>
      <point x="345" y="222" type="line" smooth="yes"/>
      <point x="345.0" y="194.0"/>
      <point x="333.0" y="180.0"/>
      <point x="294" y="180.0" type="curve" smooth="yes"/>
      <point x="220.70454545454544" y="180.0"/>
      <point x="149.36363636363637" y="180.0"/>
      <point x="79" y="180" type="curve"/>
      <point x="38" y="40"/>
      <point x="35" y="15"/>
      <point x="35" y="11" type="curve" smooth="yes"/>
      <point x="35" y="4"/>
      <point x="39" y="0"/>
      <point x="46" y="0" type="curve" smooth="yes"/>
      <point x="382" y="0" type="line" smooth="yes"/>
      <point x="499" y="0.0"/>
      <point x="575.0" y="67.0"/>
    </contour>
  </outline>
</glyph>
<glyph name="D" format="1">
  <advance width="650"/>
  <unicode hex="0044"/>
  <outline>
    <contour>
      <point x="260" y="5" type="curve"/>
      <point x="260" y="639" type="line" smooth="yes"/>
      <point x="260" y="645"/>
      <point x="255" y="650"/>
      <point x="35" y="650" type="curve"/>
      <point x="35" y="11" type="line" smooth="yes"/>
      <point x="35" y="6"/>
      <point x="55" y="5"/>
    </contour>
    <contour>
      <point x="5" y="700" type="curve"/>
      <point x="5" y="637"/>
      <point x="5" y="574"/>
      <point x="5" y="511" type="curve"/>
      <point x="5" y="508"/>
      <point x="6" y="505"/>
      <point x="8" y="503" type="curve" smooth="yes"/>
      <point x="10" y="501"/>
      <point x="13" y="500"/>
      <point x="16" y="500" type="curve" smooth="yes"/>
      <point x="30" y="500"/>
      <point x="78" y="500"/>
      <point x="92" y="500" type="curve" smooth="yes"/>
      <point x="155" y="500"/>
      <point x="281" y="500"/>
      <point x="343" y="500" type="curve"/>
      <point x="387" y="500"/>
      <point x="422" y="500"/>
      <point x="493" y="500" type="curve"/>
      <point x="493.0" y="639.0"/>
      <point x="471.0" y="700.0"/>
      <point x="391" y="700" type="curve" smooth="yes"/>
      <point x="323" y="700.0"/>
      <point x="82" y="700.0"/>
    </contour>
    <contour>
      <point x="625" y="246" type="curve" smooth="yes"/>
      <point x="625" y="456" type="line" smooth="yes"/>
      <point x="625.0" y="612.0"/>
      <point x="535.0" y="700.0"/>
      <point x="391" y="700" type="curve" smooth="yes"/>
      <point x="367.0" y="700.0"/>
      <point x="343.0" y="693.0"/>
      <point x="343" y="500" type="curve"/>
      <point x="373.0" y="500.0"/>
      <point x="395.0" y="497.0"/>
      <point x="395" y="449" type="curve" smooth="yes"/>
      <point x="395" y="256" type="line" smooth="yes"/>
      <point x="395" y="218"/>
      <point x="375" y="200"/>
      <point x="339" y="200" type="curve" smooth="yes"/>
      <point x="329" y="200"/>
      <point x="94" y="200"/>
      <point x="75" y="200" type="curve"/>
      <point x="48" y="141"/>
      <point x="35" y="82"/>
      <point x="35" y="11" type="curve" smooth="yes"/>
      <point x="35" y="5"/>
      <point x="40" y="0"/>
      <point x="46" y="0" type="curve" smooth="yes"/>
      <point x="395" y="0" type="line" smooth="yes"/>
      <point x="537.0" y="0.0"/>
      <point x="625" y="93"/>
    </contour>
    <contour>
      <point x="326" y="711" type="move" name="top"/>
    </contour>
  </outline>
</glyph>
<glyph name="N" format="1">
  <advance width="700"/>
  <unicode hex="004E"/>
  <outline>
    <contour>
      <point x="245" y="0" type="curve"/>
      <point x="245" y="163.0" type="line"/>
      <point x="224.0" y="652.0"/>
      <point x="220.46918352252308" y="663.530816477477"/>
      <point x="217" y="667" type="curve" smooth="yes"/>
      <point x="197.3472657346769" y="686.6527342653231"/>
      <point x="174.5" y="700.0"/>
      <point x="149" y="700" type="curve"/>
      <point x="111" y="700.0"/>
      <point x="73" y="700.0"/>
      <point x="35" y="700" type="curve"/>
      <point x="35.0" y="667"/>
      <point x="35.0" y="593.0"/>
      <point x="35" y="560" type="curve" smooth="yes"/>
      <point x="35" y="11" type="line"/>
      <point x="35.0" y="5.0"/>
      <point x="40.0" y="0.0"/>
      <point x="46" y="0" type="curve"/>
      <point x="112" y="0.0"/>
      <point x="179" y="0.0"/>
    </contour>
    <contour>
      <point x="665" y="0" type="line"/>
      <point x="665" y="689" type="line"/>
      <point x="665.0" y="695.0"/>
      <point x="660.0" y="700.0"/>
      <point x="654" y="700" type="curve"/>
      <point x="455" y="700" type="line"/>
      <point x="455.0" y="494" type="line"/>
      <point x="472.0" y="33.0"/>
      <point x="474.58036945608796" y="24.419630543912035"/>
      <point x="476" y="23" type="curve" smooth="yes"/>
      <point x="490.9224848988215" y="8.077515101178507"/>
      <point x="512.25" y="0.0"/>
      <point x="534" y="0" type="curve"/>
    </contour>
    <contour>
      <point x="149" y="700" type="line"/>
      <point x="58" y="608"/>
      <point x="60" y="600"/>
      <point x="67" y="592" type="curve"/>
      <point x="202" y="398"/>
      <point x="337" y="202"/>
      <point x="472" y="8" type="curve"/>
      <point x="475" y="1"/>
      <point x="480" y="0.0"/>
      <point x="484" y="0" type="curve" smooth="yes"/>
      <point x="488" y="0.0"/>
      <point x="542" y="-2.0"/>
      <point x="543" y="0" type="curve"/>
      <point x="605.0" y="140.0"/>
      <point x="603" y="161"/>
      <point x="594" y="177" type="curve"/>
      <point x="472.1126437545957" y="347.84211408167323"/>
      <point x="350" y="521"/>
      <point x="230" y="690" type="curve"/>
      <point x="225" y="697"/>
      <point x="220.0" y="700.0"/>
      <point x="209" y="700" type="curve"/>
    </contour>
    <contour>
      <point x="350" y="711" type="move" name="top"/>
    </contour>
    <contour>
      <point x="350" y="-1" type="move" name="bottom"/>
    </contour>
  </outline>
</glyph>
<glyph name="Q" format="1">
  <advance width="650"/>
  <unicode hex="0051"/>
  <outline>
    <contour>
      <point x="325.0" y="720.0" type="curve" smooth="yes"/>
      <point x="141" y="720"/>
      <point x="30" y="616.0"/>
      <point x="30.0" y="446.0" type="curve" smooth="yes"/>
      <point x="30.0" y="254.0" type="line" smooth="yes"/>
      <point x="30" y="83"/>
      <point x="141" y="-20.0"/>
      <point x="325.0" y="-20.0" type="curve" smooth="yes"/>
      <point x="325.0" y="-20.0"/>
      <point x="358" y="11"/>
      <point x="325.0" y="180.0" type="curve"/>
      <point x="279.0" y="180.0"/>
      <point x="255.0" y="202.0"/>
      <point x="255.0" y="250" type="curve" smooth="yes"/>
      <point x="255.0" y="450.0" type="line" smooth="yes"/>
      <point x="255.0" y="492.0"/>
      <point x="283.0" y="520.0"/>
      <point x="325.0" y="520.0" type="curve" smooth="yes"/>
      <point x="390" y="520.0"/>
      <point x="447" y="520.0"/>
      <point x="482.0" y="520.0" type="curve"/>
      <point x="482.0" y="648.0"/>
      <point x="425.0" y="720.0"/>
    </contour>
    <contour>
      <point x="325.0" y="-20.0" type="curve" smooth="yes"/>
      <point x="509.0" y="-20.0"/>
      <point x="620.0" y="84.0"/>
      <point x="620.0" y="254.0" type="curve" smooth="yes"/>
      <point x="620.0" y="446.0" type="line" smooth="yes"/>
      <point x="620.0" y="617.0"/>
      <point x="509.0" y="720.0"/>
      <point x="325.0" y="720.0" type="curve" smooth="yes"/>
      <point x="325.0" y="720.0"/>
      <point x="292.0" y="689.0"/>
      <point x="325.0" y="520.0" type="curve"/>
      <point x="371.0" y="520.0"/>
      <point x="395.0" y="498.0"/>
      <point x="395.0" y="450.0" type="curve" smooth="yes"/>
      <point x="395.0" y="250.0" type="line" smooth="yes"/>
      <point x="395.0" y="208.0"/>
      <point x="367.0" y="180.0"/>
      <point x="325.0" y="180.0" type="curve" smooth="yes"/>
      <point x="260.0" y="180.0"/>
      <point x="203.0" y="180.0"/>
      <point x="168.0" y="180.0" type="curve"/>
      <point x="168.0" y="52.0"/>
      <point x="225.0" y="-20.0"/>
    </contour>
    <contour>
      <point x="487" y="147" type="line"/>
      <point x="327" y="66"/>
      <point x="307" y="51"/>
      <point x="319" y="32" type="curve" smooth="yes"/>
      <point x="392" y="-87" type="line" smooth="yes"/>
      <point x="437" y="-160"/>
      <point x="481.0" y="-177.0"/>
      <point x="576" y="-177.0" type="curve" smooth="yes"/>
      <point x="609" y="-177" type="line" smooth="yes"/>
      <point x="616" y="-177"/>
      <point x="620" y="-173"/>
      <point x="620" y="-166" type="curve" smooth="yes"/>
      <point x="620.0" y="-100"/>
      <point x="620.0" y="-49"/>
      <point x="620" y="17" type="curve"/>
      <point x="595" y="17" type="line"/>
      <point x="591" y="17"/>
      <point x="587" y="17"/>
      <point x="583" y="17" type="curve" smooth="yes"/>
      <point x="569" y="17"/>
      <point x="562" y="24"/>
      <point x="553" y="38" type="curve" smooth="yes"/>
    </contour>
  </outline>
</glyph>
<glyph name="Y" format="1">
  <advance width="600"/>
  <unicode hex="0059"/>
  <outline>
    <contour>
      <point x="15" y="700" type="line"/>
      <point x="75" y="527"/>
      <point x="136" y="353"/>
      <point x="196" y="180" type="curve"/>
      <point x="199" y="170"/>
      <point x="207" y="165.0"/>
      <point x="217" y="165" type="curve"/>
      <point x="281.0" y="165.0"/>
      <point x="323" y="277"/>
      <point x="308" y="364" type="curve"/>
      <point x="288" y="472"/>
      <point x="268" y="579"/>
      <point x="248" y="687" type="curve"/>
      <point x="246" y="697"/>
      <point x="241.0" y="700.0"/>
      <point x="232" y="700" type="curve" smooth="yes"/>
    </contour>
    <contour>
      <point x="357" y="700" type="line"/>
      <point x="335" y="588"/>
      <point x="314" y="477"/>
      <point x="292" y="365" type="curve"/>
      <point x="263" y="264"/>
      <point x="238.0" y="191.0"/>
      <point x="217" y="165" type="curve"/>
      <point x="398" y="165" type="line"/>
      <point x="458" y="337"/>
      <point x="518.0" y="509.0"/>
      <point x="578" y="681" type="curve"/>
      <point x="581" y="691"/>
      <point x="576" y="700.0"/>
      <point x="565" y="700" type="curve"/>
    </contour>
    <contour>
      <point x="413" y="0" type="curve"/>
      <point x="413" y="31"/>
      <point x="413" y="65"/>
      <point x="413" y="101" type="curve" smooth="yes"/>
      <point x="413" y="289" type="line" smooth="yes"/>
      <point x="413.0" y="295.0"/>
      <point x="408.0" y="300.0"/>
      <point x="187" y="300" type="curve"/>
      <point x="187" y="11" type="line" smooth="yes"/>
      <point x="187" y="8"/>
      <point x="188" y="5"/>
      <point x="190" y="3" type="curve" smooth="yes"/>
      <point x="192" y="1"/>
      <point x="195" y="0"/>
      <point x="198" y="0" type="curve" smooth="yes"/>
      <point x="270" y="0.0"/>
      <point x="341" y="0.0"/>
    </contour>
    <contour>
      <point x="296" y="711" type="move" name="top"/>
    </contour>
  </outline>
</glyph>
<glyph name="asciicircum" format="1">
  <advance width="600"/>
  <unicode hex="005E"/>
  <outline>
    <contour>
      <point x="214.0" y="334.0" type="line"/>
      <point x="245.0" y="431.0"/>
      <point x="269.0" y="504.0"/>
      <point x="301.0" y="602.0" type="curve"/>
      <point x="329.0" y="690.0"/>
      <point x="358.0" y="726.0"/>
      <point x="414.0" y="750.0" type="curve"/>
      <point x="154.0" y="750.0" type="line"/>
      <point x="101.0" y="607.0"/>
      <point x="30.0" y="417.0"/>
      <point x="11.0" y="370.0" type="curve" smooth="yes"/>
      <point x="6.0" y="354.0"/>
      <point x="5.0" y="349.0"/>
      <point x="5.0" y="345.0" type="curve" smooth="yes"/>
      <point x="5.0" y="338.0"/>
      <point x="10.0" y="334.0"/>
      <point x="17.0" y="334.0" type="curve"/>
    </contour>
    <contour>
      <point x="595.0" y="334.0" type="curve"/>
      <point x="545.0" y="475.0"/>
      <point x="506.0" y="590.0"/>
      <point x="456.0" y="732.0" type="curve" smooth="yes"/>
      <point x="454.0" y="743.0"/>
      <point x="444.0" y="750.0"/>
      <point x="432.0" y="750.0" type="curve" smooth="yes"/>
      <point x="377.0" y="750.0" type="line" smooth="yes"/>
      <point x="306.0" y="750.0"/>
      <point x="194.0" y="699.0"/>
      <point x="197.0" y="544.0" type="curve"/>
      <point x="248.0" y="544.0"/>
      <point x="280.0" y="544.0"/>
      <point x="305.0" y="544.0" type="curve" smooth="yes"/>
      <point x="318.0" y="544.0"/>
      <point x="325.0" y="539.0"/>
      <point x="329.0" y="526.0" type="curve" smooth="yes"/>
      <point x="346.0" y="463.0"/>
      <point x="360.0" y="413.0"/>
      <point x="378.0" y="348.0" type="curve" smooth="yes"/>
      <point x="381.0" y="337.0"/>
      <point x="387.0" y="334.0"/>
      <point x="398.0" y="334.0" type="curve" smooth="yes"/>
      <point x="466.0" y="334.0"/>
      <point x="527.0" y="334.0"/>
    </contour>
  </outline>
</glyph>
<glyph name="b" format="1">
  <advance width="600.0"/>
  <unicode hex="0062"/>
  <outline>
    <contour>
      <point x="8.33695062398263" y="0.0" type="line"/>
      <point x="33.33695062398263" y="0.0"/>
      <point x="67.8648941942485" y="0.0"/>
      <point x="92.8648941942485" y="0.0" type="curve" smooth="yes"/>
      <point x="105.00651112316875" y="0.0"/>
      <point x="202.85831445698852" y="94.76397178513294"/>
      <point x="208.18938906016464" y="111.71459576776994" type="curve" smooth="yes"/>
      <point x="367.61390576467" y="739.0" type="line"/>
      <point x="369.1370699370061" y="745.0"/>
      <point x="365.4063734139528" y="750.0"/>
      <point x="359.4063734139528" y="750.0" type="curve" smooth="yes"/>
      <point x="311.4063734139528" y="750.0"/>
      <point x="246.7324721659875" y="750.0"/>
      <point x="198.7324721659875" y="750.0" type="curve"/>
      <point x="186.29329809190986" y="701.0"/>
      <point x="173.85412401783222" y="652.0"/>
      <point x="161.41494994375455" y="603.0" type="curve" smooth="yes"/>
    </contour>
    <contour>
      <point x="477.70591427021157" y="553.9055887140531" type="curve" smooth="yes"/>
      <point x="419.3733043950082" y="553.9055887140531"/>
      <point x="361.42051003798156" y="531.0"/>
      <point x="302.4226804123711" y="481.1437873033098" type="curve" smooth="yes"/>
      <point x="233.3776451437873" y="422.0021703743896"/>
      <point x="208.9484536082474" y="361.9055887140532"/>
      <point x="222.9484536082474" y="316.8540423223006" type="curve"/>
      <point x="296.08790016277806" y="374.901247965274"/>
      <point x="341.1329354313619" y="398.99565925122084"/>
      <point x="396.70157352143246" y="398.99565925122084" type="curve" smooth="yes"/>
      <point x="438.8903960933261" y="398.99565925122084"/>
      <point x="472.69723277265325" y="364.18882257189364"/>
      <point x="472.69723277265325" y="307.85838307107974" type="curve"/>
      <point x="537.950623982637" y="307.85838307107974"/>
      <point x="581.4270211611503" y="330.3819858925665"/>
      <point x="587.5214324470971" y="364.24253933803584" type="curve" smooth="yes"/>
      <point x="615.7080846446012" y="471.24036896364623"/>
      <point x="567.9441128594683" y="553.9055887140531"/>
    </contour>
    <contour>
      <point x="316.10526315789474" y="-10.0" type="curve" smooth="yes"/>
      <point x="436.53228431904506" y="-10.0"/>
      <point x="511.3412913727618" y="52.62018448182312"/>
      <point x="548.6695604991861" y="192.8540423223006" type="curve" smooth="yes"/>
      <point x="587.5214324470971" y="364.24253933803584" type="line" smooth="yes"/>
      <point x="605.8046663049377" y="436.48073792729247"/>
      <point x="551.8947368421052" y="488.2381985892566"/>
      <point x="475.8475311991318" y="488.2381985892566" type="curve"/>
      <point x="438.5599565925122" y="488.2381985892566"/>
      <point x="418.6093326098752" y="474.71459576776994"/>
      <point x="412.5149213239284" y="449.4763971785133" type="curve"/>
      <point x="423.9419424850787" y="419.71459576776994"/>
      <point x="428.5127509495388" y="398.9034183396636"/>
      <point x="414.80032555615844" y="340.61584373304396" type="curve" smooth="yes"/>
      <point x="377.47205642973415" y="206.28757460661964" type="line" smooth="yes"/>
      <point x="365.28323385784046" y="161.1459576776994"/>
      <point x="338.0944112859468" y="138.00434074877916"/>
      <point x="299.95279435702656" y="138.00434074877916" type="curve" smooth="yes"/>
      <point x="259.95279435702656" y="138.00434074877916"/>
      <point x="216.76397178513292" y="157.52794357026588"/>
      <point x="183.42919153553987" y="200.28974498100922" type="curve"/>
      <point x="176.42919153553987" y="187.19316332067282"/>
      <point x="158.6223548562127" y="149.28757460661964"/>
      <point x="154.81334780249594" y="134.76397178513292" type="curve" smooth="yes"/>
      <point x="139.57731958762886" y="77.57514921323929"/>
      <point x="213.15029842647857" y="-10.0"/>
    </contour>
  </outline>
</glyph>
<glyph name="d" format="1">
  <advance width="600.0"/>
  <unicode hex="0064"/>
  <outline>
    <contour>
      <point x="310.5577862181226" y="553.9055887140531" type="curve" smooth="yes"/>
      <point x="194.70157352143244" y="553.9055887140531"/>
      <point x="119.89256646771568" y="491.28540423223006"/>
      <point x="82.56429734129136" y="351.0515463917526" type="curve" smooth="yes"/>
      <point x="43.712425393380364" y="179.66304937601737" type="line" smooth="yes"/>
      <point x="25.42919153553988" y="107.42485078676071"/>
      <point x="73.38415626695604" y="55.667390124796526"/>
      <point x="144.66739012479653" y="55.667390124796526" type="curve" smooth="yes"/>
      <point x="184.33695062398266" y="55.667390124796526"/>
      <point x="212.62452523060227" y="69.19099294628323"/>
      <point x="218.7189365165491" y="94.66739012479653" type="curve"/>
      <point x="207.29191535539883" y="122.04720564297341"/>
      <point x="202.7211068909387" y="143.33478024959305"/>
      <point x="216.43353228431906" y="200.90775908844276" type="curve" smooth="yes"/>
      <point x="253.76180141074335" y="336.66521975040695" type="line" smooth="yes"/>
      <point x="265.950623982637" y="382.52143244709714"/>
      <point x="293.13944655453065" y="405.901247965274"/>
      <point x="335.85187194791104" y="405.901247965274" type="curve" smooth="yes"/>
      <point x="376.8046663049376" y="405.901247965274"/>
      <point x="413.7552902875746" y="387.09224091155727"/>
      <point x="447.8046663049376" y="343.61584373304396" type="curve"/>
      <point x="454.8046663049376" y="356.7124253933804"/>
      <point x="474.1351058057515" y="393.4270211611503"/>
      <point x="476.42051003798156" y="407.950623982637" type="curve" smooth="yes"/>
      <point x="483.27672273467175" y="452.42702116115026"/>
      <point x="411.9891481280521" y="553.9055887140531"/>
    </contour>
    <contour>
      <point x="150.6695604991861" y="-10.0" type="curve" smooth="yes"/>
      <point x="210.90775908844276" y="-10.0"/>
      <point x="260.9077590884428" y="14.809007053716767"/>
      <point x="330.33478024959305" y="75.85621269669018" type="curve" smooth="yes"/>
      <point x="404.71242539338033" y="141.8540423223006"/>
      <point x="406.57080846446013" y="189.18448182311448"/>
      <point x="391.7618014107434" y="237.8540423223006" type="curve"/>
      <point x="344.6695604991861" y="180.28757460661964"/>
      <point x="290.3412913727618" y="145.14812805208896"/>
      <point x="234.53228431904503" y="145.14812805208896" type="curve" smooth="yes"/>
      <point x="191.86706456863809" y="145.14812805208896"/>
      <point x="158.53662506782422" y="179.00217037438958"/>
      <point x="158.53662506782422" y="233.66521975040695" type="curve"/>
      <point x="96.37981551817688" y="232.71242539338036"/>
      <point x="49.806836679327176" y="211.14161692892023"/>
      <point x="43.712425393380364" y="179.66304937601737" type="curve" smooth="yes"/>
      <point x="15.52577319587629" y="70.99782962561042"/>
      <point x="61.145957677699414" y="-10.0"/>
    </contour>
    <contour>
      <point x="503.7873033098209" y="750.0" type="curve"/>
      <point x="495.40748779164403" y="717.9527943570266"/>
      <point x="487.02767227346715" y="684.1909929462832"/>
      <point x="478.64785675529026" y="649.7618014107434" type="curve" smooth="yes"/>
      <point x="316.38415626695604" y="11.0" type="line"/>
      <point x="315.6223548562127" y="8.0"/>
      <point x="315.86055344546935" y="5.0"/>
      <point x="317.098752034726" y="3.0" type="curve" smooth="yes"/>
      <point x="318.3369506239826" y="1.0"/>
      <point x="321.3369506239826" y="0.0"/>
      <point x="324.3369506239826" y="0.0" type="curve" smooth="yes"/>
      <point x="372.3369506239826" y="0.0"/>
      <point x="437.0108518719479" y="0.0"/>
      <point x="485.0108518719479" y="0.0" type="curve"/>
      <point x="497.96147585458493" y="46.18882257189365"/>
      <point x="510.15029842647857" y="91.8540423223006"/>
      <point x="523.1009224091156" y="138.04286489419425" type="curve" smooth="yes"/>
      <point x="672.4139989148129" y="739.0" type="line"/>
      <point x="673.1758003255561" y="742.0"/>
      <point x="672.9376017362995" y="745.0"/>
      <point x="671.6994031470429" y="747.0" type="curve" smooth="yes"/>
      <point x="670.4612045577862" y="749.0"/>
      <point x="667.4612045577862" y="750.0"/>
      <point x="664.4612045577862" y="750.0" type="curve" smooth="yes"/>
      <point x="616.4612045577862" y="750.0"/>
      <point x="551.7873033098209" y="750.0"/>
    </contour>
  </outline>
</glyph>
<glyph name="k" format="1">
  <advance width="600.0"/>
  <unicode hex="006B"/>
  <outline>
    <contour>
      <point x="176.20184481823117" y="0.0" type="curve"/>
      <point x="363.80489871095324" y="739.0" type="line" smooth="yes"/>
      <point x="364.5664807971213" y="742.0"/>
      <point x="364.3280628832893" y="745.0"/>
      <point x="362.835784274068" y="747.0" type="curve" smooth="yes"/>
      <point x="361.3435056648467" y="749.0"/>
      <point x="358.59736636023604" y="750.0"/>
      <point x="355.59736636023604" y="750.0" type="curve" smooth="yes"/>
      <point x="309.6445720032094" y="750.0"/>
      <point x="254.6852665230141" y="750.0"/>
      <point x="198.7324721659875" y="750.0" type="curve"/>
      <point x="191.62437269508598" y="722.0"/>
      <point x="182.99310905184845" y="688.0"/>
      <point x="173.85412401783225" y="652.0" type="curve" smooth="yes"/>
      <point x="11.1294182732654" y="11.0" type="line" smooth="yes"/>
      <point x="9.606254100929334" y="5.0"/>
      <point x="13.33695062398263" y="0.0"/>
      <point x="19.33695062398263" y="0.0" type="curve" smooth="yes"/>
      <point x="70.05154639175258" y="0.0"/>
      <point x="125.24905046120456" y="0.0"/>
    </contour>
    <contour>
      <point x="436.9891481280521" y="542.3819858925665" type="line"/>
      <point x="319.75746066196416" y="425.6201844818231"/>
      <point x="230.18882257189364" y="336.8068366793272"/>
      <point x="113.7189365165491" y="220.80683667932718" type="curve"/>
      <point x="92.00651112316875" y="159.57514921323929"/>
      <point x="142.28540423223006" y="122.43570265870864"/>
      <point x="189.57514921323929" y="127.2810634834509" type="curve" smooth="yes"/>
      <point x="350.33478024959305" y="260.56429734129136"/>
      <point x="448.4537918407814" y="339.07921866521974"/>
      <point x="627.6860229237765" y="518.9055887140531" type="curve" smooth="yes"/>
      <point x="637.4943720037672" y="527.6673901247965"/>
      <point x="639.2559540899352" y="530.9055887140531"/>
      <point x="640.0175361761032" y="534.3819858925665" type="curve" smooth="yes"/>
      <point x="641.0329789576607" y="538.6201844818231"/>
      <point x="638.087900162778" y="542.3819858925665"/>
      <point x="632.333825971448" y="542.3819858925665" type="curve"/>
    </contour>
    <contour>
      <point x="368.80900705371675" y="0.0" type="curve" smooth="yes"/>
      <point x="453.80900705371675" y="0.0"/>
      <point x="487.7704829083017" y="0.0"/>
      <point x="536.7704829083017" y="0.0" type="curve"/>
      <point x="486.22093259700534" y="112.85838307107976"/>
      <point x="434.6245252306023" y="233.66739012479653"/>
      <point x="384.3369506239826" y="349.7639717851329" type="curve"/>
      <point x="267.85838307107974" y="245.7574606619642"/>
      <point x="265.95279435702656" y="229.851871947911"/>
      <point x="273.42919153553987" y="210.37547476939773" type="curve" smooth="yes"/>
      <point x="291.6201844818231" y="162.94628323385786"/>
      <point x="342.6180141074335" y="32.71459576776994"/>
      <point x="351.0944112859468" y="10.0" type="curve" smooth="yes"/>
      <point x="354.33260987520345" y="2.7618014107433533"/>
      <point x="358.80900705371675" y="0.0"/>
    </contour>
  </outline>
</glyph>
<glyph name="m" format="1">
  <advance width="850.0"/>
  <unicode hex="006D"/>
  <outline>
    <contour>
      <point x="179.05588714053175" y="0.0" type="curve"/>
      <point x="313.3481950014925" y="531.3819858925665" type="line" smooth="yes"/>
      <point x="314.1097770876605" y="534.3819858925665"/>
      <point x="313.8713591738285" y="537.3819858925665"/>
      <point x="312.3790805646072" y="539.3819858925665" type="curve" smooth="yes"/>
      <point x="310.88680195538586" y="541.3819858925665"/>
      <point x="308.14066265077525" y="542.3819858925665"/>
      <point x="305.14066265077525" y="542.3819858925665" type="curve" smooth="yes"/>
      <point x="260.2786842632417" y="542.3819858925665"/>
      <point x="200.0610890177815" y="542.3819858925665"/>
      <point x="145.42172613422616" y="542.3819858925665" type="curve"/>
      <point x="138.31362666332464" y="514.3819858925665"/>
      <point x="129.68236302008708" y="480.3819858925665"/>
      <point x="120.54337798607085" y="444.3819858925665" type="curve" smooth="yes"/>
      <point x="11.1294182732654" y="11.0" type="line" smooth="yes"/>
      <point x="9.606254100929334" y="5.0"/>
      <point x="13.33695062398263" y="0.0"/>
      <point x="19.33695062398263" y="0.0" type="curve" smooth="yes"/>
      <point x="68.87168422066824" y="0.0"/>
      <point x="129.3052165049873" y="0.0"/>
    </contour>
    <contour>
      <point x="464.9419424850787" y="553.9055887140531" type="curve" smooth="yes"/>
      <point x="402.8453608247423" y="553.9055887140531"/>
      <point x="351.41833966359195" y="527.4270211611503"/>
      <point x="289.84970157352143" y="458.9034183396636" type="curve" smooth="yes"/>
      <point x="258.6608790016278" y="424.6180141074335"/>
      <point x="238.7574606619642" y="391.9978296256104"/>
      <point x="253.47205642973412" y="314.1437873033098" type="curve"/>
      <point x="300.4262637210788" y="381.1577413222949"/>
      <point x="337.48487385710763" y="397.6608790016278"/>
      <point x="364.1522639819042" y="397.6608790016278" type="curve" smooth="yes"/>
      <point x="380.9140653926475" y="397.6608790016278"/>
      <point x="392.21557038016095" y="391.7080846446012"/>
      <point x="389.4237607046042" y="372.8990775908844" type="curve"/>
      <point x="465.814428094729" y="372.8990775908844"/>
      <point x="552.4720564297342" y="381.2728527996826"/>
      <point x="557.8046663049377" y="401.9034183396636" type="curve" smooth="yes"/>
      <point x="578.3733043950081" y="490.24036896364623"/>
      <point x="540.5127509495388" y="553.9055887140531"/>
    </contour>
    <contour>
      <point x="455.72327726532825" y="0.0" type="curve"/>
      <point x="557.8046663049377" y="401.9034183396636" type="line"/>
      <point x="560.851871947911" y="417.42919153553987"/>
      <point x="519.9051566262204" y="437.54120682406307"/>
      <point x="401.3541167650265" y="448.2381985892566" type="curve"/>
      <point x="393.73829590334634" y="416.0150117561946"/>
      <point x="386.37633573705546" y="384.4742268041237"/>
      <point x="378.7605148753753" y="352.3304395008139" type="curve" smooth="yes"/>
      <point x="290.416992879885" y="11.0" type="line" smooth="yes"/>
      <point x="288.893828707549" y="5.0"/>
      <point x="292.6245252306023" y="0.0"/>
      <point x="298.6245252306023" y="0.0" type="curve" smooth="yes"/>
      <point x="351.2447097124254" y="0.0"/>
      <point x="403.1030927835052" y="0.0"/>
    </contour>
    <contour>
      <point x="739.4205100379816" y="553.9055887140531" type="curve" smooth="yes"/>
      <point x="675.0385241454151" y="553.9055887140531"/>
      <point x="615.2295170916983" y="528.950623982637"/>
      <point x="554.4226804123712" y="460.4270211611503" type="curve" smooth="yes"/>
      <point x="524.7574606619642" y="427.66521975040695"/>
      <point x="506.3304395008139" y="392.75963103635377"/>
      <point x="519.5214324470971" y="311.0965816603364" type="curve"/>
      <point x="566.4543853881273" y="377.33194988287585"/>
      <point x="604.5342498744707" y="397.6608790016278"/>
      <point x="638.5342498744707" y="397.6608790016278" type="curve" smooth="yes"/>
      <point x="657.2960512852139" y="397.6608790016278"/>
      <point x="669.6447619157008" y="391.7080846446012"/>
      <point x="666.8529522401441" y="372.8990775908844" type="curve"/>
      <point x="741.2436196302689" y="372.8990775908844"/>
      <point x="831.7596310363538" y="380.5110513889393"/>
      <point x="834.0450352685839" y="392.7618014107434" type="curve" smooth="yes"/>
      <point x="856.137276180141" y="487.1931633206728"/>
      <point x="819.5621269669018" y="553.9055887140531"/>
    </contour>
    <contour>
      <point x="735.0108518719479" y="0.0" type="curve"/>
      <point x="742.1189513428494" y="28.0"/>
      <point x="751.0086814975583" y="62.0"/>
      <point x="759.8892000201032" y="98.0" type="curve" smooth="yes"/>
      <point x="834.0450352685839" y="392.7618014107434" type="line"/>
      <point x="838.6158437330439" y="414.3819858925665"/>
      <point x="790.7044546470162" y="436.0143844668027"/>
      <point x="678.0215068898231" y="448.2381985892566" type="curve"/>
      <point x="670.6595467235322" y="416.6749746396471"/>
      <point x="662.2819244511087" y="384.4742268041237"/>
      <point x="655.9356263909505" y="353.8540423223006" type="curve" smooth="yes"/>
      <point x="567.0843830046816" y="11.0" type="line" smooth="yes"/>
      <point x="565.5612188323455" y="5.0"/>
      <point x="569.2919153553988" y="0.0"/>
      <point x="575.2919153553988" y="0.0" type="curve" smooth="yes"/>
      <point x="627.912099837222" y="0.0"/>
      <point x="682.3906673901248" y="0.0"/>
    </contour>
  </outline>
</glyph>
<glyph name="q" format="1">
  <advance width="602.28540423223"/>
  <unicode hex="0071"/>
  <outline>
    <contour>
      <point x="301.08138903960935" y="553.9055887140531" type="curve" smooth="yes"/>
      <point x="196.51058057514922" y="553.9055887140531"/>
      <point x="122.17797069994573" y="491.28540423223006"/>
      <point x="87.89690721649484" y="361.71676614215954" type="curve" smooth="yes"/>
      <point x="45.99782962561042" y="179.66304937601737" type="line" smooth="yes"/>
      <point x="27.714595767769936" y="107.42485078676071"/>
      <point x="75.6695604991861" y="55.667390124796526"/>
      <point x="146.9527943570266" y="55.667390124796526" type="curve" smooth="yes"/>
      <point x="186.6223548562127" y="55.667390124796526"/>
      <point x="214.90992946283234" y="69.19099294628323"/>
      <point x="221.00434074877916" y="94.66739012479653" type="curve"/>
      <point x="209.57731958762886" y="122.04720564297341"/>
      <point x="205.00651112316876" y="143.33478024959305"/>
      <point x="218.71893651654912" y="200.90775908844276" type="curve" smooth="yes"/>
      <point x="256.0472056429734" y="336.66521975040695" type="line" smooth="yes"/>
      <point x="268.236028214867" y="382.52143244709714"/>
      <point x="295.4248507867607" y="405.901247965274"/>
      <point x="338.13727618014104" y="405.901247965274" type="curve" smooth="yes"/>
      <point x="377.1844818231145" y="405.901247965274"/>
      <point x="412.94411285946825" y="387.09224091155727"/>
      <point x="440.80032555615844" y="346.7124253933804" type="curve"/>
      <point x="448.9913185024417" y="359.80900705371675"/>
      <point x="469.51275094953877" y="390.09224091155727"/>
      <point x="471.79815518176883" y="407.950623982637" type="curve" smooth="yes"/>
      <point x="478.654367878459" y="452.4270211611503"/>
      <point x="409.74877916440585" y="553.9055887140531"/>
    </contour>
    <contour>
      <point x="155.81334780249594" y="-10.0" type="curve" smooth="yes"/>
      <point x="217.39122807017543" y="-10.0"/>
      <point x="271.3035441380169" y="7.015969531397239"/>
      <point x="336.71459576776994" y="69.37981551817688" type="curve" smooth="yes"/>
      <point x="406.367863674344" y="138.27128201400757"/>
      <point x="413.1235425526415" y="198.57947022038408"/>
      <point x="401.6695604991861" y="244.0472056429734" type="curve"/>
      <point x="348.86055344546935" y="181.95496473141617"/>
      <point x="292.6266956049919" y="145.14812805208896"/>
      <point x="236.8176885512751" y="145.14812805208896" type="curve" smooth="yes"/>
      <point x="194.15246880086815" y="145.14812805208896"/>
      <point x="160.82202930005428" y="179.00217037438958"/>
      <point x="160.82202930005428" y="233.66521975040695" type="curve"/>
      <point x="98.66521975040695" y="232.71242539338036"/>
      <point x="52.09224091155724" y="211.14161692892023"/>
      <point x="45.99782962561042" y="179.66304937601737" type="curve" smooth="yes"/>
      <point x="17.811177428106348" y="70.99782962561042"/>
      <point x="63.431361909929464" y="-10.0"/>
    </contour>
    <contour>
      <point x="436.2555615843733" y="-200.0" type="curve"/>
      <point x="599.2810634834509" y="430.7102550189908" type="line" smooth="yes"/>
      <point x="607.6608790016278" y="467.75963103635377"/>
      <point x="616.0406945198047" y="505.33260987520345"/>
      <point x="624.4205100379816" y="542.3819858925665" type="curve"/>
      <point x="570.9419424850787" y="542.3819858925665"/>
      <point x="517.2251763429191" y="542.3819858925665"/>
      <point x="463.74660879001624" y="542.3819858925665" type="curve" smooth="yes"/>
      <point x="460.74660879001624" y="542.3819858925665"/>
      <point x="457.74660879001624" y="541.3819858925665"/>
      <point x="454.9848073792729" y="539.3819858925665" type="curve" smooth="yes"/>
      <point x="452.22300596852955" y="537.3819858925665"/>
      <point x="450.46120455778623" y="534.3819858925665"/>
      <point x="449.69940314704286" y="531.3819858925665" type="curve" smooth="yes"/>
      <point x="267.62886597938143" y="-189.0" type="line" smooth="yes"/>
      <point x="266.10526315789474" y="-195.0"/>
      <point x="269.58166033640805" y="-200.0"/>
      <point x="275.58166033640805" y="-200.0" type="curve" smooth="yes"/>
      <point x="329.0602278893109" y="-200.0"/>
      <point x="382.77699403147045" y="-200.0"/>
    </contour>
  </outline>
</glyph>
<glyph name="s" format="1">
  <advance width="550.0"/>
  <unicode hex="0073"/>
  <outline>
    <contour>
      <point x="386.42051003798156" y="554.763971785133" type="curve" smooth="yes"/>
      <point x="378.6587086272382" y="554.763971785133" type="line" smooth="yes"/>
      <point x="235.60499186109604" y="554.763971785133"/>
      <point x="125.74877916440585" y="507.6180141074335"/>
      <point x="96.80032555615843" y="393.14161692892026" type="curve" smooth="yes"/>
      <point x="85.37330439500813" y="347.2360282148671"/>
      <point x="142.27088495610636" y="299.1437873033098"/>
      <point x="233.83449956373215" y="299.1437873033098" type="curve"/>
      <point x="237.3885492991829" y="312.6673901247965"/>
      <point x="249.09224091155724" y="355.04720564297344"/>
      <point x="254.42485078676071" y="372.3326098752035" type="curve" smooth="yes"/>
      <point x="259.75746066196416" y="395.18882257189364"/>
      <point x="286.7902809442496" y="406.9978296256104"/>
      <point x="356.0756851764796" y="406.9978296256104" type="curve" smooth="yes"/>
      <point x="420.2194724797895" y="406.9978296256104"/>
      <point x="458.4248507867607" y="396.8540423223006"/>
      <point x="508.2360282148671" y="376.5686380900705" type="curve"/>
      <point x="528.9978296256104" y="376.5686380900705" type="line"/>
      <point x="539.3563970617465" y="422.88905011090424"/>
      <point x="549.8731200299518" y="463.87275129983914"/>
      <point x="560.2316874660879" y="509.24036896364623" type="curve"/>
      <point x="561.7552902875746" y="514.2403689636462"/>
      <point x="560.7552902875746" y="517.2403689636462"/>
      <point x="559.5170916983179" y="519.2403689636462" type="curve" smooth="yes"/>
      <point x="551.3466522017412" y="529.8915742905132"/>
      <point x="486.1351058057515" y="554.763971785133"/>
    </contour>
    <contour>
      <point x="369.4248507867607" y="323.85838307107974" type="curve" smooth="yes"/>
      <point x="288.0944112859468" y="333.9055887140532" type="line" smooth="yes"/>
      <point x="256.2360282148671" y="338.1437873033098"/>
      <point x="249.09224091155724" y="353.80900705371675"/>
      <point x="254.42485078676071" y="372.3326098752035" type="curve" smooth="yes"/>
      <point x="259.75746066196416" y="395.7618014107434"/>
      <point x="265.820947182789" y="421.57080846446013"/>
      <point x="273.6906287398585" y="454.0" type="curve"/>
      <point x="181.13710421714325" y="454.0"/>
      <point x="108.22734671730873" y="437.75963103635377"/>
      <point x="96.80032555615843" y="393.14161692892026" type="curve"/>
      <point x="76.23168746608789" y="307.4248507867607"/>
      <point x="118.94845360824742" y="239.4763971785133"/>
      <point x="225.33478024959305" y="225.57080846446013" type="curve" smooth="yes"/>
      <point x="299.33260987520345" y="215.28540423223006" type="line" smooth="yes"/>
      <point x="343.2360282148671" y="209.52360282148672"/>
      <point x="349.18882257189364" y="187.33478024959305"/>
      <point x="344.6180141074335" y="172.00217037438958" type="curve" smooth="yes"/>
      <point x="338.52360282148675" y="146.38198589256646"/>
      <point x="331.6588364663585" y="117.71459576776994"/>
      <point x="324.550736995457" y="86.61801410743352" type="curve"/>
      <point x="423.0758013153611" y="88.6279459891148"/>
      <point x="489.5773195876289" y="98.71676614215951"/>
      <point x="503.2897449810092" y="151.7167661421595" type="curve" smooth="yes"/>
      <point x="520.8111774281064" y="229.05154639175257"/>
      <point x="477.53534823348946" y="310.40751015047704"/>
    </contour>
    <contour>
      <point x="253.36123357847362" y="137.0515463917526" type="curve" smooth="yes"/>
      <point x="157.59726179334064" y="137.0515463917526"/>
      <point x="111.28757460661964" y="149.90775908844276"/>
      <point x="51.28540423223007" y="177.71676614215954" type="curve"/>
      <point x="31.28540423223007" y="177.71676614215954" type="line"/>
      <point x="21.763851567087393" y="137.27784140453508"/>
      <point x="12.530250074615068" y="96.48765744034006"/>
      <point x="0.8133478024959402" y="44.663049376017355" type="curve" smooth="yes"/>
      <point x="-0.012604511565257326" y="41.470596666063855"/>
      <point x="0.05154639175256648" y="39.663049376017355"/>
      <point x="2.0515463917525807" y="36.90124796527401" type="curve" smooth="yes"/>
      <point x="10.165004947161421" y="25.034164063915817"/>
      <point x="107.11109014131026" y="-12.381985892566469"/>
      <point x="214.91209983722192" y="-12.381985892566469" type="curve" smooth="yes"/>
      <point x="225.38849701573523" y="-12.381985892566469" type="line" smooth="yes"/>
      <point x="372.2550977543626" y="-12.381985892566469"/>
      <point x="470.53228431904506" y="25.763971785132934"/>
      <point x="503.2897449810092" y="151.7167661421595" type="curve" smooth="yes"/>
      <point x="517.0021703743896" y="214.148128052089"/>
      <point x="451.4013113433003" y="254.71676614215954"/>
      <point x="365.1684482577514" y="254.71676614215954" type="curve"/>
      <point x="357.55262739607116" y="224.95496473141617"/>
      <point x="349.950623982637" y="191.76397178513292"/>
      <point x="344.6180141074335" y="172.00217037438958" type="curve" smooth="yes"/>
      <point x="338.52360282148675" y="150.86055344546935"/>
      <point x="319.5950914189511" y="137.0515463917526"/>
    </contour>
  </outline>
</glyph>
<glyph name="w" format="1">
  <advance width="800.0"/>
  <unicode hex="0077"/>
  <outline>
    <contour>
      <point x="110.94749933010245" y="542.3819858925665" type="curve"/>
      <point x="99.85448751217145" y="366.66739012479655"/>
      <point x="89.28507851572715" y="190.71459576776994"/>
      <point x="78.19206669779614" y="15.0" type="curve"/>
      <point x="77.39959904851344" y="4.238198589256647"/>
      <point x="84.43136190992946" y="0.0"/>
      <point x="94.43136190992946" y="0.0" type="curve"/>
      <point x="152.0515463917526" y="0.0" type="line" smooth="yes"/>
      <point x="205.61777191149446" y="25.139446554530654"/>
      <point x="211.2425393380358" y="42.233857840477484"/>
      <point x="217.10092240911558" y="57.377645143787305" type="curve"/>
      <point x="235.33478024959305" y="213.4742268041237"/>
      <point x="253.04503526858383" y="370.57080846446013"/>
      <point x="271.2788931090613" y="526.6673901247965" type="curve"/>
      <point x="271.80249593054805" y="532.8583830710797"/>
      <point x="271.56429734129136" y="535.8583830710797"/>
      <point x="269.5642973412914" y="538.6201844818231" type="curve" smooth="yes"/>
      <point x="267.5642973412914" y="541.3819858925665"/>
      <point x="263.80249593054805" y="542.3819858925665"/>
      <point x="259.0406945198047" y="542.3819858925665" type="curve"/>
      <point x="209.1351058057515" y="542.3819858925665"/>
      <point x="159.66209509787237" y="542.3819858925665"/>
    </contour>
    <contour>
      <point x="406.9419424850787" y="542.3819858925665" type="curve"/>
      <point x="336.6608790016278" y="394.6673901247965"/>
      <point x="267.66521975040695" y="247.9527943570266"/>
      <point x="198.1459576776994" y="101.0" type="curve"/>
      <point x="164.90992946283234" y="38.094411285946826"/>
      <point x="155.93949907849506" y="24.094411285946826"/>
      <point x="124.76614215952252" y="0.0" type="curve"/>
      <point x="273.57948996201844" y="0.0" type="line"/>
      <point x="353.73624682735687" y="158.5214324470971"/>
      <point x="433.65480510343866" y="316.8046663049376"/>
      <point x="517.1463422183701" y="489.3798155181769" type="curve"/>
      <point x="533.4765395232449" y="526.1909929462832"/>
      <point x="533.8003255561584" y="537.8111774281064"/>
      <point x="536.1801410743353" y="542.3819858925665" type="curve" smooth="yes"/>
      <point x="499.5599565925122" y="542.3819858925665"/>
      <point x="443.5621269669018" y="542.3819858925665"/>
    </contour>
    <contour>
      <point x="424.9703762758574" y="475.0965816603364" type="curve"/>
      <point x="423.0981463444476" y="321.9055887140532"/>
      <point x="420.97205571764863" y="167.71459576776994"/>
      <point x="419.0998257862389" y="14.523602821486707" type="curve"/>
      <point x="418.79941742160213" y="4.285404232230059"/>
      <point x="425.1009224091156" y="0.0"/>
      <point x="434.6245252306023" y="0.0" type="curve"/>
      <point x="496.3391209983722" y="0.0" type="line" smooth="yes"/>
      <point x="533.4598349027156" y="31.23385784047748"/>
      <point x="541.4357026587086" y="39.94845360824742"/>
      <point x="542.3884970157352" y="47.8540423223006" type="curve"/>
      <point x="545.334780249593" y="207.4270211611503"/>
      <point x="547.5192620727075" y="366.4763971785133"/>
      <point x="550.4655453065654" y="526.049376017363" type="curve"/>
      <point x="550.7509495387955" y="534.5729788388497"/>
      <point x="546.7509495387955" y="542.3819858925665"/>
      <point x="536.1801410743353" y="542.3819858925665" type="curve" smooth="yes"/>
      <point x="516.8903960933261" y="542.3819858925665"/>
      <point x="497.1191473951998" y="531.6673901247965"/>
    </contour>
    <contour>
      <point x="685.8903960933261" y="542.3819858925665" type="curve"/>
      <point x="630.7059142702116" y="397.71459576776994"/>
      <point x="576.2832338578405" y="253.28540423223006"/>
      <point x="521.098752034726" y="108.61801410743354" type="curve"/>
      <point x="497.1009224091156" y="51.141616928920236"/>
      <point x="481.33431872907863" y="31.950623982637005"/>
      <point x="457.86272381985896" y="0.0" type="curve"/>
      <point x="616.4400434074878" y="0.0" type="line"/>
      <point x="692.1828321942684" y="172.90558871405318"/>
      <point x="768.6874223917923" y="345.81117742810636"/>
      <point x="844.4302111785729" y="518.7167661421595" type="curve"/>
      <point x="851.2696651462537" y="530.8111774281064"/>
      <point x="852.0466900139791" y="536.6201844818231"/>
      <point x="850.0464706894037" y="539.3819858925665" type="curve" smooth="yes"/>
      <point x="848.5541920801824" y="541.3819858925665"/>
      <point x="845.8080527755718" y="542.3819858925665"/>
      <point x="842.5698541863151" y="542.3819858925665" type="curve"/>
      <point x="792.3788612400319" y="542.3819858925665"/>
      <point x="735.8431904503527" y="542.3819858925665"/>
    </contour>
  </outline>
</glyph>
<glyph name="z" format="1">
  <advance width="550.0"/>
  <unicode hex="007A"/>
  <outline>
    <contour>
      <point x="136.6127190805094" y="542.3819858925665" type="line"/>
      <point x="126.02634918621362" y="494.4162259780857"/>
      <point x="115.43997929191787" y="446.4504660636049"/>
      <point x="104.37241076606323" y="397.0406945198047" type="curve" smooth="yes"/>
      <point x="103.6108286798952" y="394.0406945198047"/>
      <point x="103.84924659372717" y="391.0406945198047"/>
      <point x="105.3415252029485" y="389.0406945198047" type="curve" smooth="yes"/>
      <point x="106.83380381216983" y="387.0406945198047"/>
      <point x="109.57994311678047" y="386.0406945198047"/>
      <point x="112.57994311678047" y="386.0406945198047" type="curve" smooth="yes"/>
      <point x="376.1078866870464" y="386.0406945198047" type="line" smooth="yes"/>
      <point x="445.68520627467524" y="386.0406945198047"/>
      <point x="489.822263130241" y="389.7552902875746"/>
      <point x="549.6797689030194" y="403.42268041237116" type="curve"/>
      <point x="578.1121667866254" y="531.3819858925665" type="line" smooth="yes"/>
      <point x="578.8737488727934" y="534.3819858925665"/>
      <point x="578.6353309589615" y="537.3819858925665"/>
      <point x="577.1430523497402" y="539.3819858925665" type="curve" smooth="yes"/>
      <point x="575.6507737405188" y="541.3819858925665"/>
      <point x="572.9046344359082" y="542.3819858925665"/>
      <point x="569.9046344359082" y="542.3819858925665" type="curve" smooth="yes"/>
    </contour>
    <contour>
      <point x="390.47205642973415" y="441.2360282148671" type="curve"/>
      <point x="270.5686380900705" y="339.42919153553987"/>
      <point x="150.66521975040695" y="238.38415626695604"/>
      <point x="30.761801410743345" y="136.57731958762886" type="curve"/>
      <point x="8.669560499186119" y="58.343461747151395"/>
      <point x="121.6587086272382" y="78.24470971242539"/>
      <point x="197.5236028214867" y="104.1459576776994" type="curve" smooth="yes"/>
      <point x="359.8220293000543" y="238.15246880086818"/>
      <point x="549.1606927207536" y="401.1504076386084"/>
      <point x="549.6797689030194" y="403.42268041237116" type="curve"/>
      <point x="554.3832434537053" y="429.2088985349973"/>
      <point x="496.04503526858383" y="441.2360282148671"/>
    </contour>
    <contour>
      <point x="443.8198589256647" y="0.0" type="line"/>
      <point x="454.88742745151933" y="49.40977154380026"/>
      <point x="464.99259871425613" y="95.93151982896154"/>
      <point x="476.06016724011084" y="145.3412913727618" type="curve"/>
      <point x="477.58333141244685" y="151.3412913727618"/>
      <point x="473.8526348893935" y="156.3412913727618"/>
      <point x="467.8526348893935" y="156.3412913727618" type="curve" smooth="yes"/>
      <point x="220.2447097124254" y="156.3412913727618" type="line" smooth="yes"/>
      <point x="150.66739012479653" y="156.3412913727618"/>
      <point x="94.32469131912772" y="154.67390124796526"/>
      <point x="30.752809103154668" y="136.57731958762886" type="curve"/>
      <point x="2.3204112195486175" y="11.0" type="line" smooth="yes"/>
      <point x="1.55882913338057" y="8.0"/>
      <point x="1.7972470472125792" y="5.0"/>
      <point x="3.289525656433881" y="3.0" type="curve" smooth="yes"/>
      <point x="4.781804265655239" y="1.0"/>
      <point x="7.527943570265876" y="0.0"/>
      <point x="10.527943570265876" y="0.0" type="curve" smooth="yes"/>
    </contour>
  </outline>
</glyph>
<glyph name="cent" format="1">
  <advance width="600"/>
  <unicode hex="00A2"/>
  <outline>
    <contour>
      <point x="391" y="460" type="line"/>
      <point x="474" y="784" type="line" smooth="yes"/>
      <point x="476" y="793"/>
      <point x="470" y="797"/>
      <point x="464" y="797" type="curve" smooth="yes"/>
      <point x="392" y="797"/>
      <point x="369" y="797"/>
      <point x="295" y="797" type="curve"/>
      <point x="295.0" y="761"/>
      <point x="295.0" y="724"/>
      <point x="295" y="689" type="curve"/>
      <point x="295" y="500" type="line" smooth="yes"/>
      <point x="295.0" y="492.0"/>
      <point x="297" y="487"/>
      <point x="307" y="484" type="curve" smooth="yes"/>
    </contour>
    <contour>
      <point x="291.0" y="235.0" type="line"/>
      <point x="208.0" y="-89.0" type="line" smooth="yes"/>
      <point x="206.0" y="-98.0"/>
      <point x="212.0" y="-102.0"/>
      <point x="218.0" y="-102.0" type="curve" smooth="yes"/>
      <point x="290.0" y="-102.0"/>
      <point x="313.0" y="-102.0"/>
      <point x="387.0" y="-102.0" type="curve"/>
      <point x="387.0" y="-66.0"/>
      <point x="387.0" y="-29.0"/>
      <point x="387.0" y="6.0" type="curve"/>
      <point x="387.0" y="195.0" type="line" smooth="yes"/>
      <point x="387.0" y="203.0"/>
      <point x="385.0" y="208.0"/>
      <point x="375.0" y="211.0" type="curve" smooth="yes"/>
    </contour>
    <contour>
      <point x="349" y="643" type="curve" smooth="yes"/>
      <point x="137" y="643"/>
      <point x="40" y="539.0"/>
      <point x="40" y="403" type="curve" smooth="yes"/>
      <point x="40" y="306" type="line" smooth="yes"/>
      <point x="40" y="130"/>
      <point x="158.0" y="58"/>
      <point x="349" y="58" type="curve" smooth="yes"/>
      <point x="402" y="58"/>
      <point x="401" y="78"/>
      <point x="357" y="258" type="curve"/>
      <point x="284" y="258"/>
      <point x="265" y="279"/>
      <point x="265" y="328" type="curve" smooth="yes"/>
      <point x="265" y="373" type="line" smooth="yes"/>
      <point x="265.0" y="434.0"/>
      <point x="317" y="443"/>
      <point x="357" y="443" type="curve" smooth="yes"/>
      <point x="424.0" y="443.0"/>
      <point x="467.0" y="437.0"/>
      <point x="520" y="419" type="curve"/>
      <point x="540" y="419" type="line"/>
      <point x="540.0" y="481"/>
      <point x="540.0" y="542"/>
      <point x="540" y="604" type="curve" smooth="yes"/>
      <point x="540.0" y="607.0"/>
      <point x="539" y="610"/>
      <point x="537" y="612" type="curve" smooth="yes"/>
      <point x="521.0" y="628.0"/>
      <point x="430.0" y="643.0"/>
    </contour>
    <contour>
      <point x="192.0" y="258.0" type="curve"/>
      <point x="192" y="136.0"/>
      <point x="226" y="58.0"/>
      <point x="349.0" y="58.0" type="curve" smooth="yes"/>
      <point x="430" y="58.0"/>
      <point x="522" y="73"/>
      <point x="537.0" y="88.0" type="curve" smooth="yes"/>
      <point x="539.0" y="90.0"/>
      <point x="540" y="93"/>
      <point x="540.0" y="96.0" type="curve"/>
      <point x="540.0" y="157.0"/>
      <point x="540.0" y="220.0"/>
      <point x="540.0" y="282.0" type="curve"/>
      <point x="520.0" y="282.0" type="line"/>
      <point x="467" y="264"/>
      <point x="424" y="258.0"/>
      <point x="357" y="258.0" type="curve" smooth="yes"/>
      <point x="262" y="258.0"/>
      <point x="239" y="258"/>
    </contour>
  </outline>
</glyph>
<glyph name="section" format="1">
  <advance width="600"/>
  <unicode hex="00A7"/>
  <outline>
    <contour>
      <point x="315" y="720" type="curve" smooth="yes"/>
      <point x="154" y="720"/>
      <point x="35" y="637"/>
      <point x="35" y="512" type="curve" smooth="yes"/>
      <point x="35" y="472" type="line" smooth="yes"/>
      <point x="35.0" y="441.0"/>
      <point x="41.0" y="438.0"/>
      <point x="245" y="397" type="curve"/>
      <point x="245.0" y="438"/>
      <point x="245.0" y="468.0"/>
      <point x="245" y="495" type="curve" smooth="yes"/>
      <point x="245" y="527"/>
      <point x="286" y="530"/>
      <point x="332" y="530" type="curve" smooth="yes"/>
      <point x="369" y="530"/>
      <point x="396" y="521"/>
      <point x="430" y="500" type="curve"/>
      <point x="558" y="636"/>
      <point x="560" y="646"/>
      <point x="560" y="657" type="curve" smooth="yes"/>
      <point x="560" y="668"/>
      <point x="559" y="671"/>
      <point x="554" y="676" type="curve" smooth="yes"/>
      <point x="536" y="694"/>
      <point x="452" y="720"/>
    </contour>
    <contour>
      <point x="385" y="427" type="curve" smooth="yes"/>
      <point x="287" y="447" type="line" smooth="yes"/>
      <point x="251" y="454"/>
      <point x="245" y="466"/>
      <point x="245" y="485" type="curve" smooth="yes"/>
      <point x="245.0" y="515.0"/>
      <point x="245.0" y="544"/>
      <point x="245" y="574" type="curve"/>
      <point x="43" y="517"/>
      <point x="35" y="504"/>
      <point x="35" y="472" type="curve" smooth="yes"/>
      <point x="35.0" y="383"/>
      <point x="72" y="325"/>
      <point x="233" y="291" type="curve" smooth="yes"/>
      <point x="319" y="273" type="line" smooth="yes"/>
      <point x="351" y="266"/>
      <point x="360" y="252"/>
      <point x="360" y="239" type="curve" smooth="yes"/>
      <point x="360" y="228" type="line" smooth="yes"/>
      <point x="360.0" y="211.0"/>
      <point x="360.0" y="174"/>
      <point x="360" y="100" type="curve"/>
      <point x="380.0" y="100.0"/>
      <point x="400.0" y="100.0"/>
      <point x="420" y="100" type="curve" smooth="yes"/>
      <point x="511.0" y="100.0"/>
      <point x="570" y="157.0"/>
      <point x="570" y="246" type="curve" smooth="yes"/>
      <point x="570" y="256" type="line" smooth="yes"/>
      <point x="570" y="348"/>
      <point x="523" y="399"/>
    </contour>
    <contour>
      <point x="385" y="183" type="curve" smooth="yes"/>
      <point x="287" y="203" type="line" smooth="yes"/>
      <point x="251" y="210"/>
      <point x="245" y="222"/>
      <point x="245" y="241" type="curve" smooth="yes"/>
      <point x="245" y="251" type="line" smooth="yes"/>
      <point x="245" y="284.0"/>
      <point x="245.0" y="318"/>
      <point x="245" y="364" type="curve"/>
      <point x="236.74193548387098" y="364.0"/>
      <point x="211.0" y="364.0"/>
      <point x="181" y="364" type="curve" smooth="yes"/>
      <point x="98.0" y="364.0"/>
      <point x="35" y="306.0"/>
      <point x="35" y="229" type="curve" smooth="yes"/>
      <point x="35" y="217" type="line" smooth="yes"/>
      <point x="35" y="127"/>
      <point x="71" y="81"/>
      <point x="233" y="47" type="curve" smooth="yes"/>
      <point x="319" y="29" type="line" smooth="yes"/>
      <point x="351" y="22"/>
      <point x="360.0" y="8.0"/>
      <point x="360.0" y="-5" type="curve" smooth="yes"/>
      <point x="360.0" y="-30.0"/>
      <point x="360.0" y="-56"/>
      <point x="360" y="-81" type="curve"/>
      <point x="541" y="-42"/>
      <point x="570" y="-25"/>
      <point x="570" y="-3" type="curve"/>
      <point x="570.0" y="101"/>
      <point x="523" y="155"/>
    </contour>
    <contour>
      <point x="276" y="-249" type="curve" smooth="yes"/>
      <point x="456.0" y="-249.0"/>
      <point x="570" y="-182"/>
      <point x="570" y="-63" type="curve" smooth="yes"/>
      <point x="570" y="-3" type="line" smooth="yes"/>
      <point x="570.0" y="14.0"/>
      <point x="540" y="19"/>
      <point x="360" y="46" type="curve"/>
      <point x="360.0" y="21"/>
      <point x="360.0" y="2"/>
      <point x="360" y="-16" type="curve" smooth="yes"/>
      <point x="360" y="-34"/>
      <point x="348" y="-49"/>
      <point x="282" y="-49" type="curve" smooth="yes"/>
      <point x="189" y="-49"/>
      <point x="118" y="-29"/>
      <point x="50" y="8" type="curve"/>
      <point x="30" y="8" type="line"/>
      <point x="30" y="-41"/>
      <point x="30" y="-122"/>
      <point x="30" y="-187" type="curve" smooth="yes"/>
      <point x="30" y="-190"/>
      <point x="31" y="-193"/>
      <point x="33" y="-195" type="curve" smooth="yes"/>
      <point x="68" y="-230"/>
      <point x="175" y="-249"/>
    </contour>
    <contour>
      <point x="560" y="485" type="curve"/>
      <point x="560" y="657" type="line" smooth="yes"/>
      <point x="560" y="673"/>
      <point x="547" y="682"/>
      <point x="365" y="682" type="curve"/>
      <point x="365" y="665"/>
      <point x="365" y="642"/>
      <point x="365" y="617" type="curve" smooth="yes"/>
      <point x="365" y="496" type="line" smooth="yes"/>
      <point x="365" y="489"/>
      <point x="367" y="488"/>
      <point x="368" y="487" type="curve" smooth="yes"/>
      <point x="369" y="486"/>
      <point x="371" y="485"/>
      <point x="375" y="485" type="curve" smooth="yes"/>
      <point x="437" y="485"/>
      <point x="498" y="485"/>
    </contour>
  </outline>
</glyph>
<glyph name="AE" format="1">
  <advance width="800"/>
  <unicode hex="00C6"/>
  <outline>
    <contour>
      <point x="186" y="0" type="curve"/>
      <point x="235" y="185"/>
      <point x="289" y="387"/>
      <point x="336" y="568" type="curve" smooth="yes"/>
      <point x="360" y="659"/>
      <point x="372" y="689"/>
      <point x="429" y="700" type="curve"/>
      <point x="183" y="700" type="line"/>
      <point x="128" y="483"/>
      <point x="63" y="241"/>
      <point x="3" y="13" type="curve" smooth="yes"/>
      <point x="0" y="3"/>
      <point x="7" y="0"/>
      <point x="11" y="0" type="curve" smooth="yes"/>
      <point x="69" y="0"/>
      <point x="128" y="0"/>
    </contour>
    <contour>
      <point x="545" y="0" type="curve"/>
      <point x="545" y="228"/>
      <point x="545" y="460"/>
      <point x="545" y="689" type="curve" smooth="yes"/>
      <point x="545" y="697"/>
      <point x="540" y="700"/>
      <point x="533" y="700" type="curve"/>
      <point x="371" y="700"/>
      <point x="277" y="678"/>
      <point x="277" y="525" type="curve"/>
      <point x="339" y="525" type="line"/>
      <point x="343" y="525"/>
      <point x="347" y="524"/>
      <point x="347" y="519" type="curve" smooth="yes"/>
      <point x="347" y="344"/>
      <point x="347" y="189"/>
      <point x="347" y="8" type="curve" smooth="yes"/>
      <point x="347" y="2"/>
      <point x="352" y="0"/>
      <point x="358" y="0" type="curve" smooth="yes"/>
      <point x="414" y="0"/>
      <point x="489" y="0"/>
    </contour>
    <contour>
      <point x="176" y="270" type="line"/>
      <point x="176" y="111" type="line"/>
      <point x="176" y="105"/>
      <point x="181" y="100"/>
      <point x="187" y="100" type="curve"/>
      <point x="369" y="100" type="line"/>
      <point x="369" y="259" type="line"/>
      <point x="369" y="267"/>
      <point x="366" y="270"/>
      <point x="358" y="270" type="curve"/>
    </contour>
    <contour>
      <point x="379" y="700" type="line"/>
      <point x="379" y="531" type="line"/>
      <point x="379.0" y="525.0"/>
      <point x="384.0" y="520.0"/>
      <point x="390" y="520" type="curve" smooth="yes"/>
      <point x="770" y="520" type="line"/>
      <point x="770" y="573"/>
      <point x="770" y="636"/>
      <point x="770" y="689" type="curve" smooth="yes"/>
      <point x="770" y="692"/>
      <point x="769" y="695"/>
      <point x="767" y="697" type="curve" smooth="yes"/>
      <point x="765" y="699"/>
      <point x="762" y="700"/>
      <point x="759" y="700" type="curve"/>
    </contour>
    <contour>
      <point x="393" y="433" type="line"/>
      <point x="393" y="274" type="line"/>
      <point x="393.0" y="267.0"/>
      <point x="397.0" y="263.0"/>
      <point x="404" y="263" type="curve" smooth="yes"/>
      <point x="730" y="263" type="line"/>
      <point x="730" y="312"/>
      <point x="730" y="372"/>
      <point x="730" y="422" type="curve" smooth="yes"/>
      <point x="730" y="429"/>
      <point x="726" y="433"/>
      <point x="719" y="433" type="curve"/>
    </contour>
    <contour>
      <point x="443" y="180" type="line"/>
      <point x="443" y="11" type="line" smooth="yes"/>
      <point x="443" y="5"/>
      <point x="448.0" y="0"/>
      <point x="454" y="0" type="curve" smooth="yes"/>
      <point x="770" y="0" type="line"/>
      <point x="770" y="53"/>
      <point x="770" y="116"/>
      <point x="770" y="169" type="curve" smooth="yes"/>
      <point x="770" y="175"/>
      <point x="765" y="180"/>
      <point x="759" y="180" type="curve" smooth="yes"/>
    </contour>
    <contour>
      <point x="449" y="711" type="move" name="top"/>
    </contour>
  </outline>
</glyph>
<glyph name="germandbls" format="1">
  <advance width="600"/>
  <unicode hex="00DF"/>
  <outline>
    <contour>
      <point x="223" y="668" type="curve"/>
      <point x="87.0" y="668.0"/>
      <point x="18" y="604.0"/>
      <point x="18" y="542" type="curve" smooth="yes"/>
      <point x="18" y="11" type="line" smooth="yes"/>
      <point x="18" y="5"/>
      <point x="23" y="1"/>
      <point x="29" y="1" type="curve"/>
      <point x="94" y="1.0"/>
      <point x="159" y="1.0"/>
      <point x="223" y="1" type="curve"/>
      <point x="223.0" y="33"/>
      <point x="223.0" y="67"/>
      <point x="223" y="99" type="curve"/>
      <point x="223" y="494" type="line"/>
      <point x="223.0" y="538.0"/>
      <point x="223.0" y="624.0"/>
    </contour>
    <contour>
      <point x="298" y="761.0" type="curve" smooth="yes"/>
      <point x="113.0" y="761.0"/>
      <point x="18.0" y="647.0"/>
      <point x="18" y="542" type="curve" smooth="yes"/>
      <point x="18.0" y="529.0"/>
      <point x="51.0" y="494.0"/>
      <point x="223" y="494" type="curve"/>
      <point x="223" y="549.0"/>
      <point x="249.0" y="580.0"/>
      <point x="313" y="580.0" type="curve" smooth="yes"/>
      <point x="362" y="580.0"/>
      <point x="374.0" y="566.0"/>
      <point x="374" y="555" type="curve"/>
      <point x="374" y="547"/>
      <point x="374" y="542"/>
      <point x="374" y="527" type="curve"/>
      <point x="454.0" y="527.0"/>
      <point x="552.0" y="574.0"/>
      <point x="552" y="604" type="curve" smooth="yes"/>
      <point x="552" y="736"/>
      <point x="404" y="761"/>
    </contour>
    <contour>
      <point x="273" y="354" type="line" smooth="yes"/>
      <point x="273" y="324.0"/>
      <point x="352.0" y="327.0"/>
      <point x="449" y="327" type="curve"/>
      <point x="449" y="341"/>
      <point x="449" y="352"/>
      <point x="449" y="369" type="curve" smooth="yes"/>
      <point x="449.0" y="375.0"/>
      <point x="453" y="381"/>
      <point x="476" y="399" type="curve" smooth="yes"/>
      <point x="498" y="416" type="line" smooth="yes"/>
      <point x="530" y="440.0"/>
      <point x="552.0" y="471.0"/>
      <point x="552" y="522" type="curve" smooth="yes"/>
      <point x="552" y="604" type="line" smooth="yes"/>
      <point x="552.0" y="626.0"/>
      <point x="487.0" y="647.0"/>
      <point x="374" y="617" type="curve"/>
      <point x="374.0" y="598"/>
      <point x="374.0" y="572"/>
      <point x="374" y="555" type="curve" smooth="yes"/>
      <point x="374.0" y="544"/>
      <point x="368" y="535"/>
      <point x="344" y="514" type="curve" smooth="yes"/>
      <point x="318" y="491" type="line" smooth="yes"/>
      <point x="283.0" y="460.0"/>
      <point x="273.0" y="425.0"/>
      <point x="273" y="385" type="curve" smooth="yes"/>
    </contour>
    <contour>
      <point x="503" y="331" type="curve" smooth="yes"/>
      <point x="483" y="342" type="line" smooth="yes"/>
      <point x="453.0" y="358.0"/>
      <point x="449.0" y="361.0"/>
      <point x="449.0" y="369" type="curve" smooth="yes"/>
      <point x="449.0" y="392.0"/>
      <point x="449.0" y="401.0"/>
      <point x="449" y="416" type="curve"/>
      <point x="378.0" y="416.0"/>
      <point x="273.0" y="404.0"/>
      <point x="273" y="354" type="curve" smooth="yes"/>
      <point x="273.0" y="299.0"/>
      <point x="290" y="275"/>
      <point x="322" y="257" type="curve" smooth="yes"/>
      <point x="353" y="241" type="line" smooth="yes"/>
      <point x="381" y="226"/>
      <point x="389.0" y="217.0"/>
      <point x="389" y="204" type="curve"/>
      <point x="389.0" y="189.0"/>
      <point x="389.0" y="138.0"/>
      <point x="389" y="123" type="curve"/>
      <point x="476.0" y="121.0"/>
      <point x="571.0" y="168.0"/>
      <point x="571.0" y="194" type="curve" smooth="yes"/>
      <point x="571.0" y="264.0"/>
      <point x="554" y="303"/>
    </contour>
    <contour>
      <point x="355" y="176" type="curve" smooth="yes"/>
      <point x="333" y="176"/>
      <point x="317" y="180"/>
      <point x="296" y="189" type="curve"/>
      <point x="276" y="189" type="line"/>
      <point x="276" y="145"/>
      <point x="276" y="78"/>
      <point x="276" y="19" type="curve" smooth="yes"/>
      <point x="276" y="16"/>
      <point x="276" y="14"/>
      <point x="278" y="12" type="curve" smooth="yes"/>
      <point x="283" y="7"/>
      <point x="320" y="-10"/>
      <point x="402" y="-10.0" type="curve" smooth="yes"/>
      <point x="487.0" y="-10.0"/>
      <point x="571" y="33.0"/>
      <point x="571" y="139" type="curve" smooth="yes"/>
      <point x="571" y="194" type="line" smooth="yes"/>
      <point x="571.0" y="235.0"/>
      <point x="507.0" y="250.0"/>
      <point x="389" y="250" type="curve"/>
      <point x="389.0" y="218.0"/>
      <point x="389.0" y="215.0"/>
      <point x="389" y="204" type="curve" smooth="yes"/>
      <point x="389.0" y="188.0"/>
      <point x="378.0" y="176.0"/>
    </contour>
  </outline>
</glyph>
<glyph name="hbar" format="1">
  <advance width="600"/>
  <unicode hex="0127"/>
  <outline>
    <contour>
      <point x="15" y="690" type="line"/>
      <point x="15.0" y="661"/>
      <point x="15.0" y="634"/>
      <point x="15" y="605" type="curve" smooth="yes"/>
      <point x="15.0" y="598.0"/>
      <point x="19.0" y="594.0"/>
      <point x="26" y="594" type="curve" smooth="yes"/>
      <point x="530" y="594" type="line"/>
      <point x="530.0" y="623"/>
      <point x="530.0" y="650"/>
      <point x="530" y="679" type="curve" smooth="yes"/>
      <point x="530.0" y="685.0"/>
      <point x="525.0" y="690.0"/>
      <point x="519" y="690" type="curve"/>
    </contour>
    <component base="h"/>
  </outline>
</glyph>
<glyph name="IJ" format="1">
  <advance width="600"/>
  <unicode hex="0132"/>
  <outline>
    <contour>
      <point x="35" y="700" type="curve"/>
      <point x="35" y="664"/>
      <point x="35" y="629"/>
      <point x="35" y="593" type="curve" smooth="yes"/>
      <point x="35" y="11" type="line" smooth="yes"/>
      <point x="35" y="5"/>
      <point x="40" y="0"/>
      <point x="46" y="0" type="curve" smooth="yes"/>
      <point x="115.79865771812081" y="0.0"/>
      <point x="184.66666666666669" y="0.0"/>
      <point x="254" y="0" type="curve"/>
      <point x="254" y="689" type="line" smooth="yes"/>
      <point x="254" y="692"/>
      <point x="253" y="695"/>
      <point x="251" y="697" type="curve" smooth="yes"/>
      <point x="249" y="699"/>
      <point x="246" y="700"/>
      <point x="243" y="700" type="curve" smooth="yes"/>
      <point x="173.66666666666669" y="700.0"/>
      <point x="104.79865771812081" y="700.0"/>
    </contour>
    <contour>
      <point x="310" y="700" type="line"/>
      <point x="310.0" y="636"/>
      <point x="310" y="583"/>
      <point x="310" y="519" type="curve" smooth="yes"/>
      <point x="310.0" y="512.0"/>
      <point x="314.0" y="508.0"/>
      <point x="321" y="508" type="curve" smooth="yes"/>
      <point x="500" y="508" type="line"/>
      <point x="500.0" y="587.7746478873239"/>
      <point x="478" y="700"/>
      <point x="425" y="700" type="curve"/>
    </contour>
    <contour>
      <point x="565" y="80" type="curve" smooth="yes"/>
      <point x="565" y="689" type="line" smooth="yes"/>
      <point x="565" y="695"/>
      <point x="560" y="700"/>
      <point x="554" y="700" type="curve" smooth="yes"/>
      <point x="340" y="700" type="line"/>
      <point x="340" y="107" type="line" smooth="yes"/>
      <point x="340.0" y="76.04761904761905"/>
      <point x="340.0" y="59.53968253968253"/>
      <point x="340" y="42" type="curve"/>
      <point x="514.0" y="42.0"/>
      <point x="565.0" y="54.0"/>
    </contour>
    <contour>
      <point x="325" y="89" type="curve" smooth="yes"/>
      <point x="318.3333333333333" y="89.0"/>
      <point x="315.0975825823022" y="90.94145045061867"/>
      <point x="310" y="94" type="curve"/>
      <point x="290" y="94" type="line"/>
      <point x="290.0" y="28.0"/>
      <point x="290.0" y="-37.0"/>
      <point x="290" y="-101" type="curve"/>
      <point x="290" y="-104"/>
      <point x="291" y="-107"/>
      <point x="293" y="-109" type="curve" smooth="yes"/>
      <point x="301.69724398404435" y="-117.69724398404436"/>
      <point x="333.05479452054794" y="-125"/>
      <point x="361" y="-125" type="curve" smooth="yes"/>
      <point x="370" y="-125" type="line" smooth="yes"/>
      <point x="504" y="-125"/>
      <point x="565.0" y="-40"/>
      <point x="565" y="80" type="curve"/>
      <point x="565.0" y="90.8"/>
      <point x="538.2216334640237" y="163.34726636540776"/>
      <point x="340" y="107" type="curve"/>
      <point x="340.0" y="93.5"/>
      <point x="336.25" y="89.0"/>
    </contour>
  </outline>
</glyph>
<glyph name="lcaron" format="1">
  <advance width="400"/>
  <unicode hex="013E"/>
  <outline>
    <contour>
      <point x="35" y="591" type="curve"/>
      <point x="35" y="139" type="line" smooth="yes"/>
      <point x="35" y="74"/>
      <point x="101" y="67"/>
      <point x="260" y="67" type="curve"/>
      <point x="260" y="116"/>
      <point x="260" y="172"/>
      <point x="260" y="221" type="curve" smooth="yes"/>
      <point x="260" y="739" type="line" smooth="yes"/>
      <point x="260" y="742"/>
      <point x="259" y="745"/>
      <point x="257" y="747" type="curve" smooth="yes"/>
      <point x="255" y="749"/>
      <point x="252" y="750"/>
      <point x="249" y="750" type="curve" smooth="yes"/>
      <point x="178" y="750"/>
      <point x="106" y="750"/>
      <point x="35" y="750" type="curve"/>
      <point x="35" y="697"/>
      <point x="35" y="644"/>
    </contour>
    <contour>
      <point x="345" y="210" type="curve"/>
      <point x="335" y="210" type="line"/>
      <point x="326" y="210.0"/>
      <point x="285" y="210.0"/>
      <point x="271" y="210" type="curve" smooth="yes"/>
      <point x="264" y="210.0"/>
      <point x="260.0" y="214.0"/>
      <point x="260" y="221" type="curve"/>
      <point x="74" y="192"/>
      <point x="35" y="164"/>
      <point x="35" y="139" type="curve" smooth="yes"/>
      <point x="35.0" y="47.0"/>
      <point x="102.0" y="0"/>
      <point x="186" y="0" type="curve" smooth="yes"/>
      <point x="334" y="0" type="line" smooth="yes"/>
      <point x="337.0" y="0.0"/>
      <point x="340" y="1"/>
      <point x="342" y="3" type="curve" smooth="yes"/>
      <point x="344" y="5"/>
      <point x="345" y="8"/>
      <point x="345" y="11" type="curve" smooth="yes"/>
      <point x="345" y="56"/>
      <point x="345" y="165"/>
    </contour>
    <contour>
      <point x="346" y="561" type="curve" smooth="yes"/>
      <point x="355" y="561"/>
      <point x="360" y="565"/>
      <point x="362" y="572" type="curve" smooth="yes"/>
      <point x="383" y="645"/>
      <point x="388" y="665"/>
      <point x="408" y="735" type="curve" smooth="yes"/>
      <point x="410" y="743"/>
      <point x="405" y="750"/>
      <point x="397" y="750" type="curve" smooth="yes"/>
      <point x="351" y="750.0"/>
      <point x="332" y="750.0"/>
      <point x="293" y="750" type="curve"/>
      <point x="293" y="670"/>
      <point x="293" y="639"/>
      <point x="293" y="561" type="curve"/>
      <point x="313" y="561.0"/>
      <point x="327" y="561.0"/>
    </contour>
  </outline>
</glyph>
<glyph name="tbar" format="1">
  <advance width="500"/>
  <unicode hex="0167"/>
  <outline>
    <contour>
      <point x="40" y="307" type="line"/>
      <point x="40" y="291"/>
      <point x="40" y="275"/>
      <point x="40" y="259" type="curve" smooth="yes"/>
      <point x="40" y="252"/>
      <point x="44" y="248"/>
      <point x="51" y="248" type="curve" smooth="yes"/>
      <point x="420" y="248" type="line"/>
      <point x="420" y="264"/>
      <point x="420" y="280"/>
      <point x="420" y="296" type="curve" smooth="yes"/>
      <point x="420" y="302"/>
      <point x="415.0" y="307.0"/>
      <point x="409" y="307" type="curve"/>
    </contour>
    <component base="t"/>
  </outline>
</glyph>
<glyph name="circumflexcomb" format="1">
  <unicode hex="0302"/>
  <outline>
    <contour>
      <point x="-79" y="618" type="line"/>
      <point x="-34" y="662"/>
      <point x="13" y="708"/>
      <point x="76" y="771" type="curve"/>
      <point x="25" y="819"/>
      <point x="-7" y="820"/>
      <point x="-15" y="820" type="curve"/>
      <point x="-74" y="820" type="line"/>
      <point x="-100" y="788"/>
      <point x="-180" y="691"/>
      <point x="-209" y="655" type="curve" smooth="yes"/>
      <point x="-225" y="635"/>
      <point x="-227" y="633"/>
      <point x="-227" y="627" type="curve" smooth="yes"/>
      <point x="-227" y="622"/>
      <point x="-224" y="618"/>
      <point x="-216" y="618" type="curve"/>
    </contour>
    <contour>
      <point x="237" y="618" type="curve"/>
      <point x="190" y="676"/>
      <point x="109" y="775"/>
      <point x="90" y="798" type="curve" smooth="yes"/>
      <point x="74" y="817"/>
      <point x="70.0" y="820.0"/>
      <point x="60" y="820" type="curve" smooth="yes"/>
      <point x="-18" y="820" type="line"/>
      <point x="-23" y="820"/>
      <point x="-50" y="817"/>
      <point x="-77" y="771" type="curve"/>
      <point x="-13" y="707"/>
      <point x="45" y="650"/>
      <point x="66" y="629" type="curve" smooth="yes"/>
      <point x="75" y="620"/>
      <point x="80" y="618"/>
      <point x="95" y="618" type="curve" smooth="yes"/>
      <point x="147" y="618"/>
      <point x="209" y="618"/>
    </contour>
    <contour>
      <point x="0" y="549" type="move" name="_top"/>
    </contour>
  </outline>
</glyph>
<glyph name="tildecomb" format="1">
  <unicode hex="0303"/>
  <outline>
    <contour>
      <point x="110" y="791" type="curve" smooth="yes"/>
      <point x="37.0" y="791.0"/>
      <point x="-14.0" y="846.0"/>
      <point x="-104" y="846" type="curve" smooth="yes"/>
      <point x="-149" y="846.0"/>
      <point x="-179" y="832"/>
      <point x="-200" y="809" type="curve" smooth="yes"/>
      <point x="-207" y="801"/>
      <point x="-207" y="797"/>
      <point x="-207" y="786" type="curve"/>
      <point x="-207.0" y="751.9487179487179"/>
      <point x="-207.0" y="662.5641025641025"/>
      <point x="-207" y="620" type="curve"/>
      <point x="-190" y="620" type="line"/>
      <point x="-167" y="648"/>
      <point x="-141" y="660.0"/>
      <point x="-110" y="660" type="curve" smooth="yes"/>
      <point x="-37.0" y="660.0"/>
      <point x="14.0" y="605.0"/>
      <point x="104.0" y="605.0" type="curve" smooth="yes"/>
      <point x="149.0" y="605.0"/>
      <point x="179.0" y="619.0"/>
      <point x="200.0" y="642.0" type="curve" smooth="yes"/>
      <point x="207.0" y="649.0"/>
      <point x="207.0" y="653.0"/>
      <point x="207.0" y="665.0" type="curve"/>
      <point x="207.0" y="698.0215053763441"/>
      <point x="207.0" y="788.4358974358975"/>
      <point x="207.0" y="831.0" type="curve"/>
      <point x="190.0" y="831.0" type="line"/>
      <point x="167.0" y="803.0"/>
      <point x="141.0" y="791.0"/>
    </contour>
    <contour>
      <point x="0" y="560" type="move" name="_top"/>
    </contour>
  </outline>
</glyph>
<glyph name="commaaboverightcomb" format="1">
  <unicode hex="0315"/>
  <outline>
    <contour>
      <point x="31.0" y="496.0" type="curve" smooth="yes"/>
      <point x="40.0" y="496.0"/>
      <point x="45.0" y="500.0"/>
      <point x="47" y="507" type="curve" smooth="yes"/>
      <point x="66" y="580"/>
      <point x="77" y="625"/>
      <point x="98" y="695" type="curve" smooth="yes"/>
      <point x="100.0" y="703"/>
      <point x="95.0" y="710.0"/>
      <point x="87" y="710.0" type="curve" smooth="yes"/>
      <point x="29.583333333333336" y="710.0"/>
      <point x="-6" y="710.0"/>
      <point x="-62" y="710.0" type="curve"/>
      <point x="-62.0" y="630.0"/>
      <point x="-62" y="574"/>
      <point x="-62.0" y="496.0" type="curve"/>
      <point x="-18" y="496.0"/>
      <point x="4.079545454545457" y="496.0"/>
    </contour>
    <contour>
      <point x="0" y="611" type="move" name="_caronslovak"/>
    </contour>
  </outline>
</glyph>
<glyph name="commaaccentcomb" format="1">
  <unicode hex="0326"/>
  <outline>
    <contour>
      <point x="29.0" y="-254.0" type="curve" smooth="yes"/>
      <point x="38.0" y="-254.0"/>
      <point x="42.0" y="-249.0"/>
      <point x="44.0" y="-244.0" type="curve"/>
      <point x="69.0" y="-178.0"/>
      <point x="86.0" y="-138.0"/>
      <point x="110.0" y="-75.0" type="curve"/>
      <point x="113.0" y="-67.0"/>
      <point x="108" y="-60"/>
      <point x="100.0" y="-60.0" type="curve" smooth="yes"/>
      <point x="37" y="-60.0"/>
      <point x="-12" y="-60.0"/>
      <point x="-84.0" y="-60.0" type="curve"/>
      <point x="-99.0" y="-134.0"/>
      <point x="-109.0" y="-182.0"/>
      <point x="-124.0" y="-254.0" type="curve"/>
      <point x="-59.0" y="-254.0"/>
      <point x="-11.0" y="-254.0"/>
    </contour>
    <contour>
      <point x="0" y="-11" type="move" name="_bottom"/>
    </contour>
  </outline>
</glyph>
<glyph name="pi" format="1">
  <advance width="600"/>
  <unicode hex="03C0"/>
  <outline>
    <contour>
      <point x="270" y="0" type="curve"/>
      <point x="270" y="389" type="line" smooth="yes"/>
      <point x="270.0" y="395.0"/>
      <point x="265.0" y="400.0"/>
      <point x="259" y="400" type="curve" smooth="yes"/>
      <point x="210" y="400"/>
      <point x="104" y="400"/>
      <point x="45" y="400" type="curve"/>
      <point x="45" y="11" type="line" smooth="yes"/>
      <point x="45" y="5"/>
      <point x="50" y="0"/>
      <point x="56" y="0" type="curve" smooth="yes"/>
      <point x="109" y="0"/>
      <point x="216" y="0"/>
    </contour>
    <contour>
      <point x="560" y="400" type="line"/>
      <point x="489" y="400"/>
      <point x="422" y="400"/>
      <point x="351" y="400" type="curve" smooth="yes"/>
      <point x="345" y="400"/>
      <point x="340.0" y="395.0"/>
      <point x="340" y="389" type="curve" smooth="yes"/>
      <point x="340" y="135" type="line" smooth="yes"/>
      <point x="340" y="82"/>
      <point x="414.0" y="70.0"/>
      <point x="560" y="70" type="curve"/>
      <point x="560" y="104"/>
      <point x="560" y="139"/>
      <point x="560" y="173" type="curve"/>
    </contour>
    <contour>
      <point x="590" y="187" type="line"/>
      <point x="581" y="187" type="line"/>
      <point x="577.0" y="187.0"/>
      <point x="575.0" y="187.0"/>
      <point x="571" y="187" type="curve" smooth="yes"/>
      <point x="563" y="187"/>
      <point x="560" y="191"/>
      <point x="560" y="199" type="curve"/>
      <point x="350.0" y="184.0"/>
      <point x="340" y="151"/>
      <point x="340" y="135" type="curve" smooth="yes"/>
      <point x="340" y="56"/>
      <point x="399.0" y="-5"/>
      <point x="481" y="-5" type="curve" smooth="yes"/>
      <point x="579" y="-5" type="line" smooth="yes"/>
      <point x="586" y="-5"/>
      <point x="590" y="-1"/>
      <point x="590" y="6" type="curve"/>
    </contour>
    <contour>
      <point x="10" y="550" type="line"/>
      <point x="10" y="504"/>
      <point x="10" y="397"/>
      <point x="10" y="351" type="curve" smooth="yes"/>
      <point x="10.0" y="344.0"/>
      <point x="14.0" y="340.0"/>
      <point x="21" y="340" type="curve" smooth="yes"/>
      <point x="590" y="340" type="line"/>
      <point x="590" y="386"/>
      <point x="590" y="493"/>
      <point x="590" y="539" type="curve" smooth="yes"/>
      <point x="590" y="545"/>
      <point x="585.0" y="550.0"/>
      <point x="579" y="550" type="curve" smooth="yes"/>
    </contour>
  </outline>
</glyph>
<glyph name="perthousand" format="1">
  <advance width="600"/>
  <unicode hex="2030"/>
  <outline>
    <contour>
      <point x="42" y="232" type="curve"/>
      <point x="184" y="285"/>
      <point x="423" y="373"/>
      <point x="560" y="424" type="curve" smooth="yes"/>
      <point x="567" y="427.0"/>
      <point x="570" y="432"/>
      <point x="570" y="441" type="curve" smooth="yes"/>
      <point x="570.0" y="500.0"/>
      <point x="570" y="618"/>
      <point x="570" y="668" type="curve"/>
      <point x="422" y="557"/>
      <point x="100" y="317"/>
      <point x="30" y="265" type="curve"/>
      <point x="30.0" y="254"/>
      <point x="30.0" y="246"/>
      <point x="30" y="239" type="curve" smooth="yes"/>
      <point x="30.0" y="233.0"/>
      <point x="34.0" y="229.0"/>
    </contour>
    <contour>
      <point x="175" y="502" type="curve"/>
      <point x="159.0" y="502.0"/>
      <point x="151" y="512"/>
      <point x="151" y="524" type="curve" smooth="yes"/>
      <point x="151" y="557" type="line" smooth="yes"/>
      <point x="151" y="568"/>
      <point x="159.0" y="578.0"/>
      <point x="175" y="578" type="curve" smooth="yes"/>
      <point x="195.0" y="578.0"/>
      <point x="200" y="576"/>
      <point x="222" y="565" type="curve"/>
      <point x="244" y="589"/>
      <point x="204" y="710.0"/>
      <point x="152" y="710.0" type="curve" smooth="yes"/>
      <point x="70" y="710.0"/>
      <point x="10.0" y="655"/>
      <point x="10.0" y="576" type="curve" smooth="yes"/>
      <point x="10.0" y="542" type="line" smooth="yes"/>
      <point x="10.0" y="465"/>
      <point x="64" y="420"/>
      <point x="147" y="420" type="curve" smooth="yes"/>
      <point x="154.0" y="420.0"/>
      <point x="175" y="454"/>
    </contour>
    <contour>
      <point x="96" y="671" type="curve"/>
      <point x="123.0" y="671.0"/>
      <point x="150" y="648"/>
      <point x="150" y="606" type="curve" smooth="yes"/>
      <point x="150" y="581" type="line" smooth="yes"/>
      <point x="150" y="565"/>
      <point x="143.0" y="566.0"/>
      <point x="124" y="566" type="curve" smooth="yes"/>
      <point x="112.0" y="566.0"/>
      <point x="107" y="570"/>
      <point x="91" y="580" type="curve"/>
      <point x="72" y="549"/>
      <point x="91" y="420"/>
      <point x="147" y="420" type="curve" smooth="yes"/>
      <point x="232" y="420"/>
      <point x="291" y="471"/>
      <point x="291" y="553" type="curve" smooth="yes"/>
      <point x="291" y="588" type="line" smooth="yes"/>
      <point x="291" y="658"/>
      <point x="229" y="710.0"/>
      <point x="152" y="710.0" type="curve" smooth="yes"/>
      <point x="128.0" y="710.0"/>
      <point x="96" y="689"/>
    </contour>
    <contour>
      <point x="276" y="72.0" type="curve"/>
      <point x="260.0" y="72.0"/>
      <point x="252" y="82.0"/>
      <point x="252" y="94.0" type="curve" smooth="yes"/>
      <point x="252" y="127.0" type="line" smooth="yes"/>
      <point x="252" y="138.0"/>
      <point x="260.0" y="148.0"/>
      <point x="276" y="148.0" type="curve" smooth="yes"/>
      <point x="293" y="148.0"/>
      <point x="298" y="146.0"/>
      <point x="320" y="135.0" type="curve"/>
      <point x="340" y="159.0"/>
      <point x="302" y="280.0"/>
      <point x="253" y="280.0" type="curve" smooth="yes"/>
      <point x="177" y="280.0"/>
      <point x="120.0" y="225.0"/>
      <point x="120.0" y="146.0" type="curve" smooth="yes"/>
      <point x="120.0" y="112.0" type="line" smooth="yes"/>
      <point x="120.0" y="35.0"/>
      <point x="171" y="-10.0"/>
      <point x="248" y="-10.0" type="curve" smooth="yes"/>
      <point x="255.0" y="-10.0"/>
      <point x="276" y="24.0"/>
    </contour>
    <contour>
      <point x="200" y="241.0" type="curve"/>
      <point x="227.0" y="241.0"/>
      <point x="251" y="218.0"/>
      <point x="251" y="176.0" type="curve" smooth="yes"/>
      <point x="251" y="151.0" type="line" smooth="yes"/>
      <point x="251" y="135.0"/>
      <point x="244.0" y="136.0"/>
      <point x="228" y="136.0" type="curve" smooth="yes"/>
      <point x="216" y="136.0"/>
      <point x="211" y="140.0"/>
      <point x="195" y="150.0" type="curve"/>
      <point x="179" y="119.0"/>
      <point x="195" y="-10.0"/>
      <point x="248" y="-10.0" type="curve" smooth="yes"/>
      <point x="318" y="-10.0"/>
      <point x="366" y="41.0"/>
      <point x="366" y="123.0" type="curve" smooth="yes"/>
      <point x="366" y="158.0" type="line" smooth="yes"/>
      <point x="366" y="228.0"/>
      <point x="316.0" y="280.0"/>
      <point x="253" y="280.0" type="curve" smooth="yes"/>
      <point x="232.0" y="280.0"/>
      <point x="200" y="259.0"/>
    </contour>
    <contour>
      <point x="482" y="72.0" type="curve"/>
      <point x="469.0" y="72.0"/>
      <point x="462" y="82.0"/>
      <point x="462" y="94.0" type="curve" smooth="yes"/>
      <point x="462" y="127.0" type="line" smooth="yes"/>
      <point x="462" y="138.0"/>
      <point x="469.0" y="148.0"/>
      <point x="482" y="148.0" type="curve" smooth="yes"/>
      <point x="502" y="148.0"/>
      <point x="507" y="146.0"/>
      <point x="525" y="135.0" type="curve"/>
      <point x="547" y="159.0"/>
      <point x="511" y="280.0"/>
      <point x="463" y="280.0" type="curve" smooth="yes"/>
      <point x="397" y="280.0"/>
      <point x="349.0" y="225.0"/>
      <point x="349.0" y="146.0" type="curve" smooth="yes"/>
      <point x="349.0" y="112.0" type="line" smooth="yes"/>
      <point x="349.0" y="35.0"/>
      <point x="391" y="-10.0"/>
      <point x="458" y="-10.0" type="curve" smooth="yes"/>
      <point x="465.0" y="-10.0"/>
      <point x="482" y="24.0"/>
    </contour>
    <contour>
      <point x="411" y="241.0" type="curve"/>
      <point x="434.0" y="241.0"/>
      <point x="461" y="218.0"/>
      <point x="461" y="176.0" type="curve" smooth="yes"/>
      <point x="461" y="151.0" type="line" smooth="yes"/>
      <point x="461" y="135.0"/>
      <point x="454.0" y="136.0"/>
      <point x="435" y="136.0" type="curve" smooth="yes"/>
      <point x="424" y="136.0"/>
      <point x="421" y="140.0"/>
      <point x="406" y="150.0" type="curve"/>
      <point x="387" y="119.0"/>
      <point x="406" y="-10.0"/>
      <point x="458" y="-10.0" type="curve" smooth="yes"/>
      <point x="535" y="-10.0"/>
      <point x="590.0" y="41.0"/>
      <point x="590.0" y="123.0" type="curve" smooth="yes"/>
      <point x="590.0" y="158.0" type="line" smooth="yes"/>
      <point x="590.0" y="228.0"/>
      <point x="532" y="280.0"/>
      <point x="463" y="280.0" type="curve" smooth="yes"/>
      <point x="439.0" y="280.0"/>
      <point x="411" y="259.0"/>
    </contour>
  </outline>
</glyph>
<glyph name="fraction" format="1">
  <advance width="600"/>
  <unicode hex="2044"/>
  <outline>
    <contour>
      <point x="350.0" y="391.0" type="curve"/>
      <point x="389.0" y="391.0"/>
      <point x="427.0" y="391.0"/>
      <point x="466.0" y="391.0" type="curve" smooth="yes"/>
      <point x="471.0" y="391.0"/>
      <point x="474.0" y="392.0"/>
      <point x="477.0" y="399.0" type="curve" smooth="yes"/>
      <point x="515.0" y="498.0"/>
      <point x="553.0" y="597.0"/>
      <point x="592.0" y="697.0" type="curve" smooth="yes"/>
      <point x="595.0" y="705.0"/>
      <point x="592.0" y="710.0"/>
      <point x="584.0" y="710.0" type="curve" smooth="yes"/>
      <point x="510.0" y="710.0"/>
      <point x="472.0" y="710.0"/>
      <point x="381.0" y="710.0" type="curve"/>
      <point x="371.0" y="604.0"/>
      <point x="360.0" y="497.0"/>
    </contour>
    <contour>
      <point x="250.0" y="310.0" type="curve"/>
      <point x="211" y="310.0"/>
      <point x="173" y="310.0"/>
      <point x="134.0" y="310.0" type="curve" smooth="yes"/>
      <point x="129.0" y="310.0"/>
      <point x="126" y="309"/>
      <point x="123.0" y="302.0" type="curve" smooth="yes"/>
      <point x="85" y="203"/>
      <point x="47" y="104"/>
      <point x="8.0" y="4.0" type="curve" smooth="yes"/>
      <point x="5" y="-4"/>
      <point x="8.0" y="-9.0"/>
      <point x="16.0" y="-9.0" type="curve" smooth="yes"/>
      <point x="90" y="-9.0"/>
      <point x="128" y="-9.0"/>
      <point x="219.0" y="-9.0" type="curve"/>
      <point x="229" y="97"/>
      <point x="240" y="204"/>
    </contour>
  </outline>
</glyph>
<glyph name="uni2126" format="1">
  <advance width="600"/>
  <unicode hex="2126"/>
  <outline>
    <contour>
      <point x="30" y="180" type="line"/>
      <point x="30.0" y="123.0"/>
      <point x="30.0" y="67.0"/>
      <point x="30" y="11" type="curve"/>
      <point x="30.0" y="4.0"/>
      <point x="34.0" y="0.0"/>
      <point x="41" y="0" type="curve"/>
      <point x="275" y="0" type="line"/>
      <point x="275.0" y="56.0"/>
      <point x="275.0" y="112.0"/>
      <point x="275" y="169" type="curve" smooth="yes"/>
      <point x="275" y="175"/>
      <point x="270.0" y="180.0"/>
      <point x="264" y="180" type="curve"/>
    </contour>
    <contour>
      <point x="300" y="720" type="curve" smooth="yes"/>
      <point x="144" y="720"/>
      <point x="30" y="628"/>
      <point x="30" y="480" type="curve" smooth="yes"/>
      <point x="30" y="370" type="line" smooth="yes"/>
      <point x="30" y="225"/>
      <point x="106.0" y="151.0"/>
      <point x="240" y="151" type="curve"/>
      <point x="263.0" y="151.0"/>
      <point x="264.0" y="154"/>
      <point x="264" y="180" type="curve"/>
      <point x="257.0" y="180.0"/>
      <point x="253" y="183.0"/>
      <point x="253" y="191" type="curve" smooth="yes"/>
      <point x="253" y="465" type="line" smooth="yes"/>
      <point x="253" y="501"/>
      <point x="267" y="520"/>
      <point x="300" y="520" type="curve" smooth="yes"/>
      <point x="364" y="520"/>
      <point x="395" y="520"/>
      <point x="430" y="520" type="curve"/>
      <point x="430" y="654"/>
      <point x="395" y="720"/>
    </contour>
    <contour>
      <point x="350" y="151" type="curve" smooth="yes"/>
      <point x="474.0" y="151.0"/>
      <point x="565" y="236"/>
      <point x="565" y="370" type="curve" smooth="yes"/>
      <point x="565" y="480" type="line" smooth="yes"/>
      <point x="565" y="639"/>
      <point x="469.0" y="720.0"/>
      <point x="300" y="720" type="curve" smooth="yes"/>
      <point x="286" y="720"/>
      <point x="277" y="707"/>
      <point x="300" y="520" type="curve"/>
      <point x="327.0" y="520.0"/>
      <point x="342" y="506"/>
      <point x="342" y="469" type="curve" smooth="yes"/>
      <point x="342" y="191" type="line" smooth="yes"/>
      <point x="342" y="184.0"/>
      <point x="338" y="180.0"/>
      <point x="331" y="180" type="curve"/>
      <point x="331.0" y="156"/>
      <point x="338.0" y="151.0"/>
    </contour>
    <contour>
      <point x="320" y="180" type="line"/>
      <point x="320.0" y="123.0"/>
      <point x="320.0" y="67.0"/>
      <point x="320" y="11" type="curve"/>
      <point x="320.0" y="4.0"/>
      <point x="324.0" y="0.0"/>
      <point x="331" y="0" type="curve"/>
      <point x="570" y="0" type="line"/>
      <point x="570.0" y="56.0"/>
      <point x="570.0" y="112.0"/>
      <point x="570" y="169" type="curve" smooth="yes"/>
      <point x="570" y="175"/>
      <point x="565" y="180"/>
      <point x="559" y="180" type="curve"/>
    </contour>
  </outline>
</glyph>
<glyph name="bitcoin" format="1">
  <advance width="600"/>
  <outline>
    <contour>
      <point x="220.0" y="590.0" type="curve"/>
      <point x="220.0" y="759.0" type="line" smooth="yes"/>
      <point x="220.0" y="766.0"/>
      <point x="216.0" y="770.0"/>
      <point x="209.0" y="770.0" type="curve"/>
      <point x="166.7872340425532" y="770.0"/>
      <point x="127.2127659574468" y="770.0"/>
      <point x="85.0" y="770.0" type="curve"/>
      <point x="85.0" y="601.0" type="line" smooth="yes"/>
      <point x="85" y="594"/>
      <point x="89.0" y="590.0"/>
      <point x="96.0" y="590.0" type="curve" smooth="yes"/>
      <point x="138.2127659574468" y="590.0"/>
      <point x="178" y="590.0"/>
    </contour>
    <contour>
      <point x="430.0" y="590.0" type="curve"/>
      <point x="430.0" y="759.0" type="line" smooth="yes"/>
      <point x="430.0" y="766.0"/>
      <point x="426.0" y="770.0"/>
      <point x="419.0" y="770.0" type="curve"/>
      <point x="376.7872340425532" y="770.0"/>
      <point x="337.2127659574468" y="770.0"/>
      <point x="295.0" y="770.0" type="curve"/>
      <point x="295.0" y="601.0" type="line" smooth="yes"/>
      <point x="295" y="594"/>
      <point x="299.0" y="590.0"/>
      <point x="306.0" y="590.0" type="curve" smooth="yes"/>
      <point x="348.2127659574468" y="590.0"/>
      <point x="388.0" y="590.0"/>
    </contour>
    <contour>
      <point x="220.0" y="-90.0" type="curve"/>
      <point x="220.0" y="79.0" type="line" smooth="yes"/>
      <point x="220" y="86"/>
      <point x="216.0" y="90.0"/>
      <point x="209.0" y="90.0" type="curve"/>
      <point x="166.7872340425532" y="90.0"/>
      <point x="127.2127659574468" y="90.0"/>
      <point x="85.0" y="90.0" type="curve"/>
      <point x="85.0" y="-79.0" type="line" smooth="yes"/>
      <point x="85.0" y="-86.0"/>
      <point x="89.0" y="-90.0"/>
      <point x="96.0" y="-90.0" type="curve" smooth="yes"/>
      <point x="138.2127659574468" y="-90.0"/>
      <point x="178.0" y="-90.0"/>
    </contour>
    <contour>
      <point x="430.0" y="-90.0" type="curve"/>
      <point x="430.0" y="79.0" type="line" smooth="yes"/>
      <point x="430" y="86"/>
      <point x="426.0" y="90.0"/>
      <point x="419.0" y="90.0" type="curve"/>
      <point x="376.7872340425532" y="90.0"/>
      <point x="337.2127659574468" y="90.0"/>
      <point x="295.0" y="90.0" type="curve"/>
      <point x="295.0" y="-79.0" type="line" smooth="yes"/>
      <point x="295.0" y="-86.0"/>
      <point x="299.0" y="-90.0"/>
      <point x="306.0" y="-90.0" type="curve" smooth="yes"/>
      <point x="348.2127659574468" y="-90.0"/>
      <point x="388.0" y="-90.0"/>
    </contour>
    <component base="B"/>
  </outline>
</glyph>
<glyph name="hungarumlautcomb.case" format="1">
  <outline>
    <component base="acutecomb.case" xOffset="-127.0" yOffset="10.0"/>
    <component base="acutecomb.case" xOffset="143.0" yOffset="10.0"/>
    <contour>
      <point x="0" y="712" type="move" name="_top"/>
    </contour>
  </outline>
</glyph>
<glyph name="macroncomb.case" format="1">
  <outline>
    <contour>
      <point x="-206" y="933" type="line"/>
      <point x="-206.0" y="884"/>
      <point x="-206.0" y="840"/>
      <point x="-206" y="791" type="curve" smooth="yes"/>
      <point x="-206.0" y="784.0"/>
      <point x="-202.0" y="780.0"/>
      <point x="-195" y="780" type="curve"/>
      <point x="206" y="780" type="line"/>
      <point x="206.0" y="829"/>
      <point x="206.0" y="873"/>
      <point x="206" y="922" type="curve" smooth="yes"/>
      <point x="206" y="928"/>
      <point x="201.0" y="933.0"/>
      <point x="195" y="933" type="curve"/>
    </contour>
    <contour>
      <point x="0" y="712" type="move" name="_top"/>
    </contour>
  </outline>
</glyph>
<glyph name="ringacute.case" format="1">
  <outline>
    <component base="ringcomb.case"/>
    <component base="acutecomb.case" xOffset="10.0" yOffset="80.0"/>
    <contour>
      <point x="0" y="700" type="move" name="_ring"/>
    </contour>
  </outline>
</glyph>
<glyph name="y.italicer" format="1">
  <advance width="600"/>
  <outline>
    <contour>
      <point x="241" y="-20" type="curve" smooth="yes"/>
      <point x="324.20588235294116" y="-20.0"/>
      <point x="398.53010697617515" y="29.69974120855119"/>
      <point x="448" y="95" type="curve" smooth="yes"/>
      <point x="463.59240015278164" y="115.46502520052593"/>
      <point x="468.07210350221845" y="143.73818871117712"/>
      <point x="466" y="180" type="curve"/>
      <point x="368" y="63"/>
      <point x="314" y="30"/>
      <point x="243" y="30" type="curve" smooth="yes"/>
      <point x="192" y="30"/>
      <point x="151" y="71"/>
      <point x="151" y="147" type="curve"/>
      <point x="109" y="145"/>
      <point x="105" y="131"/>
      <point x="105" y="119" type="curve" smooth="yes"/>
      <point x="105" y="47"/>
      <point x="161" y="-20"/>
    </contour>
    <contour>
      <point x="105" y="500" type="line"/>
      <point x="105" y="346"/>
      <point x="105" y="273"/>
      <point x="105" y="119" type="curve" smooth="yes"/>
      <point x="105" y="95"/>
      <point x="118" y="73"/>
      <point x="155" y="73" type="curve"/>
      <point x="155" y="102"/>
      <point x="155" y="287"/>
      <point x="155" y="338" type="curve" smooth="yes"/>
      <point x="155" y="401"/>
      <point x="155" y="426"/>
      <point x="155" y="489" type="curve" smooth="yes"/>
      <point x="155" y="492"/>
      <point x="154" y="495"/>
      <point x="152" y="497" type="curve" smooth="yes"/>
      <point x="150" y="499"/>
      <point x="147" y="500"/>
      <point x="144" y="500" type="curve" smooth="yes"/>
    </contour>
    <contour>
      <point x="257" y="-200" type="curve" smooth="yes"/>
      <point x="213" y="-200"/>
      <point x="173" y="-193"/>
      <point x="137" y="-175" type="curve"/>
      <point x="125" y="-175" type="line"/>
      <point x="125" y="-216" type="line" smooth="yes"/>
      <point x="125" y="-220"/>
      <point x="126" y="-222"/>
      <point x="128" y="-224" type="curve" smooth="yes"/>
      <point x="143" y="-239"/>
      <point x="202" y="-250"/>
      <point x="257" y="-250" type="curve" smooth="yes"/>
      <point x="262" y="-250" type="line" smooth="yes"/>
      <point x="310" y="-250"/>
      <point x="372.0" y="-241.0"/>
      <point x="424" y="-189" type="curve" smooth="yes"/>
      <point x="432" y="-181"/>
      <point x="439" y="-138"/>
      <point x="436" y="-122" type="curve"/>
      <point x="372.0" y="-185.0"/>
      <point x="331.0" y="-200.0"/>
    </contour>
    <contour>
      <point x="490" y="0" type="curve"/>
      <point x="490.0" y="163"/>
      <point x="490.0" y="326"/>
      <point x="490" y="489" type="curve"/>
      <point x="490" y="492"/>
      <point x="489" y="495"/>
      <point x="487" y="497" type="curve" smooth="yes"/>
      <point x="485" y="499"/>
      <point x="482" y="500"/>
      <point x="479" y="500" type="curve" smooth="yes"/>
      <point x="440" y="500" type="line"/>
      <point x="440.0" y="471"/>
      <point x="440.0" y="442"/>
      <point x="440" y="413" type="curve"/>
      <point x="440.0" y="275"/>
      <point x="440.0" y="138"/>
      <point x="440" y="0" type="curve"/>
      <point x="440" y="-112"/>
      <point x="418" y="-137"/>
      <point x="341" y="-206" type="curve"/>
      <point x="373" y="-206"/>
      <point x="409" y="-204"/>
      <point x="424" y="-189" type="curve" smooth="yes"/>
      <point x="463" y="-150"/>
      <point x="490" y="-89"/>
    </contour>
  </outline>
</glyph>
<glyph name="zero.replaced_with_nokinks" format="1">
  <advance width="600"/>
  <outline>
    <contour>
      <point x="292.0" y="720.0" type="curve" smooth="yes"/>
      <point x="146" y="720.0"/>
      <point x="31" y="629.0"/>
      <point x="31.0" y="480.0" type="curve" smooth="yes"/>
      <point x="31.0" y="220.0" type="line" smooth="yes"/>
      <point x="31" y="61.0"/>
      <point x="152.0" y="-20"/>
      <point x="290.0" y="-20.0" type="curve" smooth="yes"/>
      <point x="308.0" y="-20.0" type="line" smooth="yes"/>
      <point x="374.0" y="-20.0"/>
      <point x="418.0" y="38.0"/>
      <point x="418.0" y="122.0" type="curve"/>
      <point x="302.0" y="122.0"/>
      <point x="256" y="125"/>
      <point x="256.0" y="191.0" type="curve" smooth="yes"/>
      <point x="256.0" y="464.0" type="line" smooth="yes"/>
      <point x="256.0" y="503.0"/>
      <point x="272.0" y="530.0"/>
      <point x="320.0" y="530.0" type="curve" smooth="yes"/>
      <point x="336.0" y="530.0"/>
      <point x="351.0" y="524.0"/>
      <point x="360.0" y="519.0" type="curve"/>
      <point x="376.0" y="535.0"/>
      <point x="382.0" y="557.0"/>
      <point x="382.0" y="583.0" type="curve"/>
      <point x="382.0" y="668.7414965986395"/>
      <point x="342.0" y="720.0"/>
    </contour>
    <contour>
      <point x="308.0" y="-20.0" type="curve" smooth="yes"/>
      <point x="454.0" y="-20.0"/>
      <point x="569.0" y="71.0"/>
      <point x="569.0" y="220.0" type="curve" smooth="yes"/>
      <point x="569.0" y="480.0" type="line" smooth="yes"/>
      <point x="569.0" y="639.0"/>
      <point x="448.0" y="720.0"/>
      <point x="310.0" y="720.0" type="curve" smooth="yes"/>
      <point x="292.0" y="720.0" type="line" smooth="yes"/>
      <point x="226.0" y="720.0"/>
      <point x="182.0" y="662.0"/>
      <point x="182.0" y="578.0" type="curve"/>
      <point x="297" y="578.0"/>
      <point x="344" y="575"/>
      <point x="344.0" y="509.0" type="curve" smooth="yes"/>
      <point x="344.0" y="236.0" type="line" smooth="yes"/>
      <point x="344.0" y="197.0"/>
      <point x="328.0" y="170.0"/>
      <point x="280.0" y="170.0" type="curve" smooth="yes"/>
      <point x="264.0" y="170.0"/>
      <point x="249.0" y="176.0"/>
      <point x="240.0" y="181.0" type="curve"/>
      <point x="224.0" y="165.0"/>
      <point x="218.0" y="143.0"/>
      <point x="218.0" y="117.0" type="curve"/>
      <point x="218.0" y="31.258503401360542"/>
      <point x="258.0" y="-20.0"/>
    </contour>
    <contour>
      <point x="192" y="174" type="curve"/>
      <point x="273.0" y="259.0"/>
      <point x="354.0" y="344.0"/>
      <point x="435" y="429" type="curve"/>
      <point x="442" y="437"/>
      <point x="445" y="446"/>
      <point x="422" y="537" type="curve"/>
      <point x="335" y="446"/>
      <point x="246" y="356"/>
      <point x="159" y="266" type="curve" smooth="yes"/>
      <point x="152" y="257"/>
      <point x="157" y="252"/>
    </contour>
  </outline>
</glyph>
